<?xml version="1.0" encoding="utf-8"?>
<svg xmlns="http://www.w3.org/2000/svg" xmlns:xlink="http://www.w3.org/1999/xlink" width="600" height="400" viewBox="0 0 2400 1600">
<defs>
  <clipPath id="clip310">
    <rect x="0" y="0" width="2400" height="1600"/>
  </clipPath>
</defs>
<path clip-path="url(#clip310)" d="M0 1600 L2400 1600 L2400 0 L0 0  Z" fill="#ffffff" fill-rule="evenodd" fill-opacity="1"/>
<defs>
  <clipPath id="clip311">
    <rect x="480" y="0" width="1681" height="1600"/>
  </clipPath>
</defs>
<path clip-path="url(#clip310)" d="M254.26 1486.45 L2352.76 1486.45 L2352.76 47.2441 L254.26 47.2441  Z" fill="#ffffff" fill-rule="evenodd" fill-opacity="1"/>
<defs>
  <clipPath id="clip312">
    <rect x="254" y="47" width="2099" height="1440"/>
  </clipPath>
</defs>
<polyline clip-path="url(#clip312)" style="stroke:#000000; stroke-linecap:round; stroke-linejoin:round; stroke-width:2; stroke-opacity:0.1; fill:none" points="309.746,1486.45 309.746,47.2441 "/>
<polyline clip-path="url(#clip312)" style="stroke:#000000; stroke-linecap:round; stroke-linejoin:round; stroke-width:2; stroke-opacity:0.1; fill:none" points="700.222,1486.45 700.222,47.2441 "/>
<polyline clip-path="url(#clip312)" style="stroke:#000000; stroke-linecap:round; stroke-linejoin:round; stroke-width:2; stroke-opacity:0.1; fill:none" points="1090.7,1486.45 1090.7,47.2441 "/>
<polyline clip-path="url(#clip312)" style="stroke:#000000; stroke-linecap:round; stroke-linejoin:round; stroke-width:2; stroke-opacity:0.1; fill:none" points="1481.17,1486.45 1481.17,47.2441 "/>
<polyline clip-path="url(#clip312)" style="stroke:#000000; stroke-linecap:round; stroke-linejoin:round; stroke-width:2; stroke-opacity:0.1; fill:none" points="1871.65,1486.45 1871.65,47.2441 "/>
<polyline clip-path="url(#clip312)" style="stroke:#000000; stroke-linecap:round; stroke-linejoin:round; stroke-width:2; stroke-opacity:0.1; fill:none" points="2262.13,1486.45 2262.13,47.2441 "/>
<polyline clip-path="url(#clip310)" style="stroke:#000000; stroke-linecap:round; stroke-linejoin:round; stroke-width:4; stroke-opacity:1; fill:none" points="254.26,1486.45 2352.76,1486.45 "/>
<polyline clip-path="url(#clip310)" style="stroke:#000000; stroke-linecap:round; stroke-linejoin:round; stroke-width:4; stroke-opacity:1; fill:none" points="309.746,1486.45 309.746,1467.55 "/>
<polyline clip-path="url(#clip310)" style="stroke:#000000; stroke-linecap:round; stroke-linejoin:round; stroke-width:4; stroke-opacity:1; fill:none" points="700.222,1486.45 700.222,1467.55 "/>
<polyline clip-path="url(#clip310)" style="stroke:#000000; stroke-linecap:round; stroke-linejoin:round; stroke-width:4; stroke-opacity:1; fill:none" points="1090.7,1486.45 1090.7,1467.55 "/>
<polyline clip-path="url(#clip310)" style="stroke:#000000; stroke-linecap:round; stroke-linejoin:round; stroke-width:4; stroke-opacity:1; fill:none" points="1481.17,1486.45 1481.17,1467.55 "/>
<polyline clip-path="url(#clip310)" style="stroke:#000000; stroke-linecap:round; stroke-linejoin:round; stroke-width:4; stroke-opacity:1; fill:none" points="1871.65,1486.45 1871.65,1467.55 "/>
<polyline clip-path="url(#clip310)" style="stroke:#000000; stroke-linecap:round; stroke-linejoin:round; stroke-width:4; stroke-opacity:1; fill:none" points="2262.13,1486.45 2262.13,1467.55 "/>
<path clip-path="url(#clip310)" d="M309.746 1517.37 Q306.135 1517.37 304.307 1520.93 Q302.501 1524.47 302.501 1531.6 Q302.501 1538.71 304.307 1542.27 Q306.135 1545.82 309.746 1545.82 Q313.381 1545.82 315.186 1542.27 Q317.015 1538.71 317.015 1531.6 Q317.015 1524.47 315.186 1520.93 Q313.381 1517.37 309.746 1517.37 M309.746 1513.66 Q315.557 1513.66 318.612 1518.27 Q321.691 1522.85 321.691 1531.6 Q321.691 1540.33 318.612 1544.94 Q315.557 1549.52 309.746 1549.52 Q303.936 1549.52 300.858 1544.94 Q297.802 1540.33 297.802 1531.6 Q297.802 1522.85 300.858 1518.27 Q303.936 1513.66 309.746 1513.66 Z" fill="#000000" fill-rule="nonzero" fill-opacity="1" /><path clip-path="url(#clip310)" d="M659.829 1544.91 L667.468 1544.91 L667.468 1518.55 L659.158 1520.21 L659.158 1515.95 L667.422 1514.29 L672.098 1514.29 L672.098 1544.91 L679.736 1544.91 L679.736 1548.85 L659.829 1548.85 L659.829 1544.91 Z" fill="#000000" fill-rule="nonzero" fill-opacity="1" /><path clip-path="url(#clip310)" d="M699.181 1517.37 Q695.57 1517.37 693.741 1520.93 Q691.935 1524.47 691.935 1531.6 Q691.935 1538.71 693.741 1542.27 Q695.57 1545.82 699.181 1545.82 Q702.815 1545.82 704.621 1542.27 Q706.449 1538.71 706.449 1531.6 Q706.449 1524.47 704.621 1520.93 Q702.815 1517.37 699.181 1517.37 M699.181 1513.66 Q704.991 1513.66 708.046 1518.27 Q711.125 1522.85 711.125 1531.6 Q711.125 1540.33 708.046 1544.94 Q704.991 1549.52 699.181 1549.52 Q693.371 1549.52 690.292 1544.94 Q687.236 1540.33 687.236 1531.6 Q687.236 1522.85 690.292 1518.27 Q693.371 1513.66 699.181 1513.66 Z" fill="#000000" fill-rule="nonzero" fill-opacity="1" /><path clip-path="url(#clip310)" d="M729.343 1517.37 Q725.732 1517.37 723.903 1520.93 Q722.097 1524.47 722.097 1531.6 Q722.097 1538.71 723.903 1542.27 Q725.732 1545.82 729.343 1545.82 Q732.977 1545.82 734.782 1542.27 Q736.611 1538.71 736.611 1531.6 Q736.611 1524.47 734.782 1520.93 Q732.977 1517.37 729.343 1517.37 M729.343 1513.66 Q735.153 1513.66 738.208 1518.27 Q741.287 1522.85 741.287 1531.6 Q741.287 1540.33 738.208 1544.94 Q735.153 1549.52 729.343 1549.52 Q723.532 1549.52 720.454 1544.94 Q717.398 1540.33 717.398 1531.6 Q717.398 1522.85 720.454 1518.27 Q723.532 1513.66 729.343 1513.66 Z" fill="#000000" fill-rule="nonzero" fill-opacity="1" /><path clip-path="url(#clip310)" d="M1054.39 1544.91 L1070.71 1544.91 L1070.71 1548.85 L1048.77 1548.85 L1048.77 1544.91 Q1051.43 1542.16 1056.01 1537.53 Q1060.62 1532.88 1061.8 1531.53 Q1064.04 1529.01 1064.92 1527.27 Q1065.83 1525.51 1065.83 1523.82 Q1065.83 1521.07 1063.88 1519.33 Q1061.96 1517.6 1058.86 1517.6 Q1056.66 1517.6 1054.21 1518.36 Q1051.78 1519.13 1049 1520.68 L1049 1515.95 Q1051.82 1514.82 1054.27 1514.24 Q1056.73 1513.66 1058.77 1513.66 Q1064.14 1513.66 1067.33 1516.35 Q1070.52 1519.03 1070.52 1523.52 Q1070.52 1525.65 1069.71 1527.57 Q1068.93 1529.47 1066.82 1532.07 Q1066.24 1532.74 1063.14 1535.95 Q1060.04 1539.15 1054.39 1544.91 Z" fill="#000000" fill-rule="nonzero" fill-opacity="1" /><path clip-path="url(#clip310)" d="M1090.52 1517.37 Q1086.91 1517.37 1085.09 1520.93 Q1083.28 1524.47 1083.28 1531.6 Q1083.28 1538.71 1085.09 1542.27 Q1086.91 1545.82 1090.52 1545.82 Q1094.16 1545.82 1095.96 1542.27 Q1097.79 1538.71 1097.79 1531.6 Q1097.79 1524.47 1095.96 1520.93 Q1094.16 1517.37 1090.52 1517.37 M1090.52 1513.66 Q1096.33 1513.66 1099.39 1518.27 Q1102.47 1522.85 1102.47 1531.6 Q1102.47 1540.33 1099.39 1544.94 Q1096.33 1549.52 1090.52 1549.52 Q1084.71 1549.52 1081.64 1544.94 Q1078.58 1540.33 1078.58 1531.6 Q1078.58 1522.85 1081.64 1518.27 Q1084.71 1513.66 1090.52 1513.66 Z" fill="#000000" fill-rule="nonzero" fill-opacity="1" /><path clip-path="url(#clip310)" d="M1120.69 1517.37 Q1117.08 1517.37 1115.25 1520.93 Q1113.44 1524.47 1113.44 1531.6 Q1113.44 1538.71 1115.25 1542.27 Q1117.08 1545.82 1120.69 1545.82 Q1124.32 1545.82 1126.13 1542.27 Q1127.96 1538.71 1127.96 1531.6 Q1127.96 1524.47 1126.13 1520.93 Q1124.32 1517.37 1120.69 1517.37 M1120.69 1513.66 Q1126.5 1513.66 1129.55 1518.27 Q1132.63 1522.85 1132.63 1531.6 Q1132.63 1540.33 1129.55 1544.94 Q1126.5 1549.52 1120.69 1549.52 Q1114.88 1549.52 1111.8 1544.94 Q1108.74 1540.33 1108.74 1531.6 Q1108.74 1522.85 1111.8 1518.27 Q1114.88 1513.66 1120.69 1513.66 Z" fill="#000000" fill-rule="nonzero" fill-opacity="1" /><path clip-path="url(#clip310)" d="M1454.94 1530.21 Q1458.29 1530.93 1460.17 1533.2 Q1462.07 1535.47 1462.07 1538.8 Q1462.07 1543.92 1458.55 1546.72 Q1455.03 1549.52 1448.55 1549.52 Q1446.37 1549.52 1444.06 1549.08 Q1441.76 1548.66 1439.31 1547.81 L1439.31 1543.29 Q1441.26 1544.43 1443.57 1545.01 Q1445.89 1545.58 1448.41 1545.58 Q1452.81 1545.58 1455.1 1543.85 Q1457.41 1542.11 1457.41 1538.8 Q1457.41 1535.75 1455.26 1534.03 Q1453.13 1532.3 1449.31 1532.3 L1445.28 1532.3 L1445.28 1528.45 L1449.5 1528.45 Q1452.95 1528.45 1454.77 1527.09 Q1456.6 1525.7 1456.6 1523.11 Q1456.6 1520.45 1454.7 1519.03 Q1452.83 1517.6 1449.31 1517.6 Q1447.39 1517.6 1445.19 1518.01 Q1442.99 1518.43 1440.35 1519.31 L1440.35 1515.14 Q1443.01 1514.4 1445.33 1514.03 Q1447.67 1513.66 1449.73 1513.66 Q1455.05 1513.66 1458.15 1516.09 Q1461.26 1518.5 1461.26 1522.62 Q1461.26 1525.49 1459.61 1527.48 Q1457.97 1529.45 1454.94 1530.21 Z" fill="#000000" fill-rule="nonzero" fill-opacity="1" /><path clip-path="url(#clip310)" d="M1480.93 1517.37 Q1477.32 1517.37 1475.49 1520.93 Q1473.69 1524.47 1473.69 1531.6 Q1473.69 1538.71 1475.49 1542.27 Q1477.32 1545.82 1480.93 1545.82 Q1484.57 1545.82 1486.37 1542.27 Q1488.2 1538.71 1488.2 1531.6 Q1488.2 1524.47 1486.37 1520.93 Q1484.57 1517.37 1480.93 1517.37 M1480.93 1513.66 Q1486.74 1513.66 1489.8 1518.27 Q1492.88 1522.85 1492.88 1531.6 Q1492.88 1540.33 1489.8 1544.94 Q1486.74 1549.52 1480.93 1549.52 Q1475.12 1549.52 1472.04 1544.94 Q1468.99 1540.33 1468.99 1531.6 Q1468.99 1522.85 1472.04 1518.27 Q1475.12 1513.66 1480.93 1513.66 Z" fill="#000000" fill-rule="nonzero" fill-opacity="1" /><path clip-path="url(#clip310)" d="M1511.09 1517.37 Q1507.48 1517.37 1505.65 1520.93 Q1503.85 1524.47 1503.85 1531.6 Q1503.85 1538.71 1505.65 1542.27 Q1507.48 1545.82 1511.09 1545.82 Q1514.73 1545.82 1516.53 1542.27 Q1518.36 1538.71 1518.36 1531.6 Q1518.36 1524.47 1516.53 1520.93 Q1514.73 1517.37 1511.09 1517.37 M1511.09 1513.66 Q1516.9 1513.66 1519.96 1518.27 Q1523.04 1522.85 1523.04 1531.6 Q1523.04 1540.33 1519.96 1544.94 Q1516.9 1549.52 1511.09 1549.52 Q1505.28 1549.52 1502.2 1544.94 Q1499.15 1540.33 1499.15 1531.6 Q1499.15 1522.85 1502.2 1518.27 Q1505.28 1513.66 1511.09 1513.66 Z" fill="#000000" fill-rule="nonzero" fill-opacity="1" /><path clip-path="url(#clip310)" d="M1844.74 1518.36 L1832.94 1536.81 L1844.74 1536.81 L1844.74 1518.36 M1843.51 1514.29 L1849.39 1514.29 L1849.39 1536.81 L1854.32 1536.81 L1854.32 1540.7 L1849.39 1540.7 L1849.39 1548.85 L1844.74 1548.85 L1844.74 1540.7 L1829.14 1540.7 L1829.14 1536.19 L1843.51 1514.29 Z" fill="#000000" fill-rule="nonzero" fill-opacity="1" /><path clip-path="url(#clip310)" d="M1872.06 1517.37 Q1868.44 1517.37 1866.62 1520.93 Q1864.81 1524.47 1864.81 1531.6 Q1864.81 1538.71 1866.62 1542.27 Q1868.44 1545.82 1872.06 1545.82 Q1875.69 1545.82 1877.5 1542.27 Q1879.32 1538.71 1879.32 1531.6 Q1879.32 1524.47 1877.5 1520.93 Q1875.69 1517.37 1872.06 1517.37 M1872.06 1513.66 Q1877.87 1513.66 1880.92 1518.27 Q1884 1522.85 1884 1531.6 Q1884 1540.33 1880.92 1544.94 Q1877.87 1549.52 1872.06 1549.52 Q1866.25 1549.52 1863.17 1544.94 Q1860.11 1540.33 1860.11 1531.6 Q1860.11 1522.85 1863.17 1518.27 Q1866.25 1513.66 1872.06 1513.66 Z" fill="#000000" fill-rule="nonzero" fill-opacity="1" /><path clip-path="url(#clip310)" d="M1902.22 1517.37 Q1898.61 1517.37 1896.78 1520.93 Q1894.97 1524.47 1894.97 1531.6 Q1894.97 1538.71 1896.78 1542.27 Q1898.61 1545.82 1902.22 1545.82 Q1905.85 1545.82 1907.66 1542.27 Q1909.49 1538.71 1909.49 1531.6 Q1909.49 1524.47 1907.66 1520.93 Q1905.85 1517.37 1902.22 1517.37 M1902.22 1513.66 Q1908.03 1513.66 1911.08 1518.27 Q1914.16 1522.85 1914.16 1531.6 Q1914.16 1540.33 1911.08 1544.94 Q1908.03 1549.52 1902.22 1549.52 Q1896.41 1549.52 1893.33 1544.94 Q1890.27 1540.33 1890.27 1531.6 Q1890.27 1522.85 1893.33 1518.27 Q1896.41 1513.66 1902.22 1513.66 Z" fill="#000000" fill-rule="nonzero" fill-opacity="1" /><path clip-path="url(#clip310)" d="M2221.74 1514.29 L2240.1 1514.29 L2240.1 1518.22 L2226.03 1518.22 L2226.03 1526.7 Q2227.05 1526.35 2228.06 1526.19 Q2229.08 1526 2230.1 1526 Q2235.89 1526 2239.27 1529.17 Q2242.65 1532.34 2242.65 1537.76 Q2242.65 1543.34 2239.18 1546.44 Q2235.7 1549.52 2229.38 1549.52 Q2227.21 1549.52 2224.94 1549.15 Q2222.69 1548.78 2220.29 1548.04 L2220.29 1543.34 Q2222.37 1544.47 2224.59 1545.03 Q2226.81 1545.58 2229.29 1545.58 Q2233.3 1545.58 2235.63 1543.48 Q2237.97 1541.37 2237.97 1537.76 Q2237.97 1534.15 2235.63 1532.04 Q2233.3 1529.94 2229.29 1529.94 Q2227.42 1529.94 2225.54 1530.35 Q2223.69 1530.77 2221.74 1531.65 L2221.74 1514.29 Z" fill="#000000" fill-rule="nonzero" fill-opacity="1" /><path clip-path="url(#clip310)" d="M2261.86 1517.37 Q2258.25 1517.37 2256.42 1520.93 Q2254.61 1524.47 2254.61 1531.6 Q2254.61 1538.71 2256.42 1542.27 Q2258.25 1545.82 2261.86 1545.82 Q2265.49 1545.82 2267.3 1542.27 Q2269.13 1538.71 2269.13 1531.6 Q2269.13 1524.47 2267.3 1520.93 Q2265.49 1517.37 2261.86 1517.37 M2261.86 1513.66 Q2267.67 1513.66 2270.73 1518.27 Q2273.8 1522.85 2273.8 1531.6 Q2273.8 1540.33 2270.73 1544.94 Q2267.67 1549.52 2261.86 1549.52 Q2256.05 1549.52 2252.97 1544.94 Q2249.92 1540.33 2249.92 1531.6 Q2249.92 1522.85 2252.97 1518.27 Q2256.05 1513.66 2261.86 1513.66 Z" fill="#000000" fill-rule="nonzero" fill-opacity="1" /><path clip-path="url(#clip310)" d="M2292.02 1517.37 Q2288.41 1517.37 2286.58 1520.93 Q2284.78 1524.47 2284.78 1531.6 Q2284.78 1538.71 2286.58 1542.27 Q2288.41 1545.82 2292.02 1545.82 Q2295.66 1545.82 2297.46 1542.27 Q2299.29 1538.71 2299.29 1531.6 Q2299.29 1524.47 2297.46 1520.93 Q2295.66 1517.37 2292.02 1517.37 M2292.02 1513.66 Q2297.83 1513.66 2300.89 1518.27 Q2303.97 1522.85 2303.97 1531.6 Q2303.97 1540.33 2300.89 1544.94 Q2297.83 1549.52 2292.02 1549.52 Q2286.21 1549.52 2283.13 1544.94 Q2280.08 1540.33 2280.08 1531.6 Q2280.08 1522.85 2283.13 1518.27 Q2286.21 1513.66 2292.02 1513.66 Z" fill="#000000" fill-rule="nonzero" fill-opacity="1" /><polyline clip-path="url(#clip312)" style="stroke:#000000; stroke-linecap:round; stroke-linejoin:round; stroke-width:2; stroke-opacity:0.1; fill:none" points="254.26,1423.69 2352.76,1423.69 "/>
<polyline clip-path="url(#clip312)" style="stroke:#000000; stroke-linecap:round; stroke-linejoin:round; stroke-width:2; stroke-opacity:0.1; fill:none" points="254.26,1098.47 2352.76,1098.47 "/>
<polyline clip-path="url(#clip312)" style="stroke:#000000; stroke-linecap:round; stroke-linejoin:round; stroke-width:2; stroke-opacity:0.1; fill:none" points="254.26,773.251 2352.76,773.251 "/>
<polyline clip-path="url(#clip312)" style="stroke:#000000; stroke-linecap:round; stroke-linejoin:round; stroke-width:2; stroke-opacity:0.1; fill:none" points="254.26,448.029 2352.76,448.029 "/>
<polyline clip-path="url(#clip312)" style="stroke:#000000; stroke-linecap:round; stroke-linejoin:round; stroke-width:2; stroke-opacity:0.1; fill:none" points="254.26,122.807 2352.76,122.807 "/>
<polyline clip-path="url(#clip310)" style="stroke:#000000; stroke-linecap:round; stroke-linejoin:round; stroke-width:4; stroke-opacity:1; fill:none" points="254.26,1486.45 254.26,47.2441 "/>
<polyline clip-path="url(#clip310)" style="stroke:#000000; stroke-linecap:round; stroke-linejoin:round; stroke-width:4; stroke-opacity:1; fill:none" points="254.26,1423.69 273.157,1423.69 "/>
<polyline clip-path="url(#clip310)" style="stroke:#000000; stroke-linecap:round; stroke-linejoin:round; stroke-width:4; stroke-opacity:1; fill:none" points="254.26,1098.47 273.157,1098.47 "/>
<polyline clip-path="url(#clip310)" style="stroke:#000000; stroke-linecap:round; stroke-linejoin:round; stroke-width:4; stroke-opacity:1; fill:none" points="254.26,773.251 273.157,773.251 "/>
<polyline clip-path="url(#clip310)" style="stroke:#000000; stroke-linecap:round; stroke-linejoin:round; stroke-width:4; stroke-opacity:1; fill:none" points="254.26,448.029 273.157,448.029 "/>
<polyline clip-path="url(#clip310)" style="stroke:#000000; stroke-linecap:round; stroke-linejoin:round; stroke-width:4; stroke-opacity:1; fill:none" points="254.26,122.807 273.157,122.807 "/>
<path clip-path="url(#clip310)" d="M50.9921 1424.15 L80.6679 1424.15 L80.6679 1428.08 L50.9921 1428.08 L50.9921 1424.15 Z" fill="#000000" fill-rule="nonzero" fill-opacity="1" /><path clip-path="url(#clip310)" d="M100.76 1409.49 Q97.1493 1409.49 95.3206 1413.06 Q93.515 1416.6 93.515 1423.73 Q93.515 1430.84 95.3206 1434.4 Q97.1493 1437.94 100.76 1437.94 Q104.395 1437.94 106.2 1434.4 Q108.029 1430.84 108.029 1423.73 Q108.029 1416.6 106.2 1413.06 Q104.395 1409.49 100.76 1409.49 M100.76 1405.79 Q106.571 1405.79 109.626 1410.4 Q112.705 1414.98 112.705 1423.73 Q112.705 1432.46 109.626 1437.06 Q106.571 1441.65 100.76 1441.65 Q94.9502 1441.65 91.8715 1437.06 Q88.816 1432.46 88.816 1423.73 Q88.816 1414.98 91.8715 1410.4 Q94.9502 1405.79 100.76 1405.79 Z" fill="#000000" fill-rule="nonzero" fill-opacity="1" /><path clip-path="url(#clip310)" d="M120.922 1435.1 L125.807 1435.1 L125.807 1440.97 L120.922 1440.97 L120.922 1435.1 Z" fill="#000000" fill-rule="nonzero" fill-opacity="1" /><path clip-path="url(#clip310)" d="M145.992 1409.49 Q142.381 1409.49 140.552 1413.06 Q138.746 1416.6 138.746 1423.73 Q138.746 1430.84 140.552 1434.4 Q142.381 1437.94 145.992 1437.94 Q149.626 1437.94 151.431 1434.4 Q153.26 1430.84 153.26 1423.73 Q153.26 1416.6 151.431 1413.06 Q149.626 1409.49 145.992 1409.49 M145.992 1405.79 Q151.802 1405.79 154.857 1410.4 Q157.936 1414.98 157.936 1423.73 Q157.936 1432.46 154.857 1437.06 Q151.802 1441.65 145.992 1441.65 Q140.181 1441.65 137.103 1437.06 Q134.047 1432.46 134.047 1423.73 Q134.047 1414.98 137.103 1410.4 Q140.181 1405.79 145.992 1405.79 Z" fill="#000000" fill-rule="nonzero" fill-opacity="1" /><path clip-path="url(#clip310)" d="M166.964 1437.04 L174.603 1437.04 L174.603 1410.67 L166.292 1412.34 L166.292 1408.08 L174.556 1406.41 L179.232 1406.41 L179.232 1437.04 L186.871 1437.04 L186.871 1440.97 L166.964 1440.97 L166.964 1437.04 Z" fill="#000000" fill-rule="nonzero" fill-opacity="1" /><path clip-path="url(#clip310)" d="M206.315 1409.49 Q202.704 1409.49 200.876 1413.06 Q199.07 1416.6 199.07 1423.73 Q199.07 1430.84 200.876 1434.4 Q202.704 1437.94 206.315 1437.94 Q209.95 1437.94 211.755 1434.4 Q213.584 1430.84 213.584 1423.73 Q213.584 1416.6 211.755 1413.06 Q209.95 1409.49 206.315 1409.49 M206.315 1405.79 Q212.126 1405.79 215.181 1410.4 Q218.26 1414.98 218.26 1423.73 Q218.26 1432.46 215.181 1437.06 Q212.126 1441.65 206.315 1441.65 Q200.505 1441.65 197.427 1437.06 Q194.371 1432.46 194.371 1423.73 Q194.371 1414.98 197.427 1410.4 Q200.505 1405.79 206.315 1405.79 Z" fill="#000000" fill-rule="nonzero" fill-opacity="1" /><path clip-path="url(#clip310)" d="M51.9875 1098.92 L81.6633 1098.92 L81.6633 1102.86 L51.9875 1102.86 L51.9875 1098.92 Z" fill="#000000" fill-rule="nonzero" fill-opacity="1" /><path clip-path="url(#clip310)" d="M101.756 1084.27 Q98.1447 1084.27 96.316 1087.84 Q94.5104 1091.38 94.5104 1098.51 Q94.5104 1105.61 96.316 1109.18 Q98.1447 1112.72 101.756 1112.72 Q105.39 1112.72 107.196 1109.18 Q109.024 1105.61 109.024 1098.51 Q109.024 1091.38 107.196 1087.84 Q105.39 1084.27 101.756 1084.27 M101.756 1080.57 Q107.566 1080.57 110.621 1085.17 Q113.7 1089.76 113.7 1098.51 Q113.7 1107.23 110.621 1111.84 Q107.566 1116.42 101.756 1116.42 Q95.9456 1116.42 92.8669 1111.84 Q89.8114 1107.23 89.8114 1098.51 Q89.8114 1089.76 92.8669 1085.17 Q95.9456 1080.57 101.756 1080.57 Z" fill="#000000" fill-rule="nonzero" fill-opacity="1" /><path clip-path="url(#clip310)" d="M121.918 1109.87 L126.802 1109.87 L126.802 1115.75 L121.918 1115.75 L121.918 1109.87 Z" fill="#000000" fill-rule="nonzero" fill-opacity="1" /><path clip-path="url(#clip310)" d="M146.987 1084.27 Q143.376 1084.27 141.547 1087.84 Q139.742 1091.38 139.742 1098.51 Q139.742 1105.61 141.547 1109.18 Q143.376 1112.72 146.987 1112.72 Q150.621 1112.72 152.427 1109.18 Q154.255 1105.61 154.255 1098.51 Q154.255 1091.38 152.427 1087.84 Q150.621 1084.27 146.987 1084.27 M146.987 1080.57 Q152.797 1080.57 155.853 1085.17 Q158.931 1089.76 158.931 1098.51 Q158.931 1107.23 155.853 1111.84 Q152.797 1116.42 146.987 1116.42 Q141.177 1116.42 138.098 1111.84 Q135.043 1107.23 135.043 1098.51 Q135.043 1089.76 138.098 1085.17 Q141.177 1080.57 146.987 1080.57 Z" fill="#000000" fill-rule="nonzero" fill-opacity="1" /><path clip-path="url(#clip310)" d="M177.149 1084.27 Q173.538 1084.27 171.709 1087.84 Q169.904 1091.38 169.904 1098.51 Q169.904 1105.61 171.709 1109.18 Q173.538 1112.72 177.149 1112.72 Q180.783 1112.72 182.589 1109.18 Q184.417 1105.61 184.417 1098.51 Q184.417 1091.38 182.589 1087.84 Q180.783 1084.27 177.149 1084.27 M177.149 1080.57 Q182.959 1080.57 186.015 1085.17 Q189.093 1089.76 189.093 1098.51 Q189.093 1107.23 186.015 1111.84 Q182.959 1116.42 177.149 1116.42 Q171.339 1116.42 168.26 1111.84 Q165.204 1107.23 165.204 1098.51 Q165.204 1089.76 168.26 1085.17 Q171.339 1080.57 177.149 1080.57 Z" fill="#000000" fill-rule="nonzero" fill-opacity="1" /><path clip-path="url(#clip310)" d="M197.357 1081.19 L215.713 1081.19 L215.713 1085.13 L201.639 1085.13 L201.639 1093.6 Q202.658 1093.25 203.676 1093.09 Q204.695 1092.91 205.714 1092.91 Q211.501 1092.91 214.88 1096.08 Q218.26 1099.25 218.26 1104.66 Q218.26 1110.24 214.788 1113.35 Q211.315 1116.42 204.996 1116.42 Q202.82 1116.42 200.552 1116.05 Q198.306 1115.68 195.899 1114.94 L195.899 1110.24 Q197.982 1111.38 200.204 1111.93 Q202.426 1112.49 204.903 1112.49 Q208.908 1112.49 211.246 1110.38 Q213.584 1108.28 213.584 1104.66 Q213.584 1101.05 211.246 1098.95 Q208.908 1096.84 204.903 1096.84 Q203.028 1096.84 201.153 1097.26 Q199.302 1097.67 197.357 1098.55 L197.357 1081.19 Z" fill="#000000" fill-rule="nonzero" fill-opacity="1" /><path clip-path="url(#clip310)" d="M100.76 759.049 Q97.1493 759.049 95.3206 762.614 Q93.515 766.156 93.515 773.285 Q93.515 780.392 95.3206 783.957 Q97.1493 787.498 100.76 787.498 Q104.395 787.498 106.2 783.957 Q108.029 780.392 108.029 773.285 Q108.029 766.156 106.2 762.614 Q104.395 759.049 100.76 759.049 M100.76 755.346 Q106.571 755.346 109.626 759.952 Q112.705 764.536 112.705 773.285 Q112.705 782.012 109.626 786.619 Q106.571 791.202 100.76 791.202 Q94.9502 791.202 91.8715 786.619 Q88.816 782.012 88.816 773.285 Q88.816 764.536 91.8715 759.952 Q94.9502 755.346 100.76 755.346 Z" fill="#000000" fill-rule="nonzero" fill-opacity="1" /><path clip-path="url(#clip310)" d="M120.922 784.651 L125.807 784.651 L125.807 790.531 L120.922 790.531 L120.922 784.651 Z" fill="#000000" fill-rule="nonzero" fill-opacity="1" /><path clip-path="url(#clip310)" d="M145.992 759.049 Q142.381 759.049 140.552 762.614 Q138.746 766.156 138.746 773.285 Q138.746 780.392 140.552 783.957 Q142.381 787.498 145.992 787.498 Q149.626 787.498 151.431 783.957 Q153.26 780.392 153.26 773.285 Q153.26 766.156 151.431 762.614 Q149.626 759.049 145.992 759.049 M145.992 755.346 Q151.802 755.346 154.857 759.952 Q157.936 764.536 157.936 773.285 Q157.936 782.012 154.857 786.619 Q151.802 791.202 145.992 791.202 Q140.181 791.202 137.103 786.619 Q134.047 782.012 134.047 773.285 Q134.047 764.536 137.103 759.952 Q140.181 755.346 145.992 755.346 Z" fill="#000000" fill-rule="nonzero" fill-opacity="1" /><path clip-path="url(#clip310)" d="M176.153 759.049 Q172.542 759.049 170.714 762.614 Q168.908 766.156 168.908 773.285 Q168.908 780.392 170.714 783.957 Q172.542 787.498 176.153 787.498 Q179.788 787.498 181.593 783.957 Q183.422 780.392 183.422 773.285 Q183.422 766.156 181.593 762.614 Q179.788 759.049 176.153 759.049 M176.153 755.346 Q181.964 755.346 185.019 759.952 Q188.098 764.536 188.098 773.285 Q188.098 782.012 185.019 786.619 Q181.964 791.202 176.153 791.202 Q170.343 791.202 167.265 786.619 Q164.209 782.012 164.209 773.285 Q164.209 764.536 167.265 759.952 Q170.343 755.346 176.153 755.346 Z" fill="#000000" fill-rule="nonzero" fill-opacity="1" /><path clip-path="url(#clip310)" d="M206.315 759.049 Q202.704 759.049 200.876 762.614 Q199.07 766.156 199.07 773.285 Q199.07 780.392 200.876 783.957 Q202.704 787.498 206.315 787.498 Q209.95 787.498 211.755 783.957 Q213.584 780.392 213.584 773.285 Q213.584 766.156 211.755 762.614 Q209.95 759.049 206.315 759.049 M206.315 755.346 Q212.126 755.346 215.181 759.952 Q218.26 764.536 218.26 773.285 Q218.26 782.012 215.181 786.619 Q212.126 791.202 206.315 791.202 Q200.505 791.202 197.427 786.619 Q194.371 782.012 194.371 773.285 Q194.371 764.536 197.427 759.952 Q200.505 755.346 206.315 755.346 Z" fill="#000000" fill-rule="nonzero" fill-opacity="1" /><path clip-path="url(#clip310)" d="M101.756 433.827 Q98.1447 433.827 96.316 437.392 Q94.5104 440.934 94.5104 448.064 Q94.5104 455.17 96.316 458.735 Q98.1447 462.276 101.756 462.276 Q105.39 462.276 107.196 458.735 Q109.024 455.17 109.024 448.064 Q109.024 440.934 107.196 437.392 Q105.39 433.827 101.756 433.827 M101.756 430.124 Q107.566 430.124 110.621 434.73 Q113.7 439.314 113.7 448.064 Q113.7 456.79 110.621 461.397 Q107.566 465.98 101.756 465.98 Q95.9456 465.98 92.8669 461.397 Q89.8114 456.79 89.8114 448.064 Q89.8114 439.314 92.8669 434.73 Q95.9456 430.124 101.756 430.124 Z" fill="#000000" fill-rule="nonzero" fill-opacity="1" /><path clip-path="url(#clip310)" d="M121.918 459.429 L126.802 459.429 L126.802 465.309 L121.918 465.309 L121.918 459.429 Z" fill="#000000" fill-rule="nonzero" fill-opacity="1" /><path clip-path="url(#clip310)" d="M146.987 433.827 Q143.376 433.827 141.547 437.392 Q139.742 440.934 139.742 448.064 Q139.742 455.17 141.547 458.735 Q143.376 462.276 146.987 462.276 Q150.621 462.276 152.427 458.735 Q154.255 455.17 154.255 448.064 Q154.255 440.934 152.427 437.392 Q150.621 433.827 146.987 433.827 M146.987 430.124 Q152.797 430.124 155.853 434.73 Q158.931 439.314 158.931 448.064 Q158.931 456.79 155.853 461.397 Q152.797 465.98 146.987 465.98 Q141.177 465.98 138.098 461.397 Q135.043 456.79 135.043 448.064 Q135.043 439.314 138.098 434.73 Q141.177 430.124 146.987 430.124 Z" fill="#000000" fill-rule="nonzero" fill-opacity="1" /><path clip-path="url(#clip310)" d="M177.149 433.827 Q173.538 433.827 171.709 437.392 Q169.904 440.934 169.904 448.064 Q169.904 455.17 171.709 458.735 Q173.538 462.276 177.149 462.276 Q180.783 462.276 182.589 458.735 Q184.417 455.17 184.417 448.064 Q184.417 440.934 182.589 437.392 Q180.783 433.827 177.149 433.827 M177.149 430.124 Q182.959 430.124 186.015 434.73 Q189.093 439.314 189.093 448.064 Q189.093 456.79 186.015 461.397 Q182.959 465.98 177.149 465.98 Q171.339 465.98 168.26 461.397 Q165.204 456.79 165.204 448.064 Q165.204 439.314 168.26 434.73 Q171.339 430.124 177.149 430.124 Z" fill="#000000" fill-rule="nonzero" fill-opacity="1" /><path clip-path="url(#clip310)" d="M197.357 430.749 L215.713 430.749 L215.713 434.684 L201.639 434.684 L201.639 443.156 Q202.658 442.809 203.676 442.647 Q204.695 442.462 205.714 442.462 Q211.501 442.462 214.88 445.633 Q218.26 448.804 218.26 454.221 Q218.26 459.8 214.788 462.901 Q211.315 465.98 204.996 465.98 Q202.82 465.98 200.552 465.61 Q198.306 465.239 195.899 464.499 L195.899 459.8 Q197.982 460.934 200.204 461.489 Q202.426 462.045 204.903 462.045 Q208.908 462.045 211.246 459.938 Q213.584 457.832 213.584 454.221 Q213.584 450.61 211.246 448.503 Q208.908 446.397 204.903 446.397 Q203.028 446.397 201.153 446.814 Q199.302 447.23 197.357 448.11 L197.357 430.749 Z" fill="#000000" fill-rule="nonzero" fill-opacity="1" /><path clip-path="url(#clip310)" d="M100.76 108.606 Q97.1493 108.606 95.3206 112.17 Q93.515 115.712 93.515 122.842 Q93.515 129.948 95.3206 133.513 Q97.1493 137.054 100.76 137.054 Q104.395 137.054 106.2 133.513 Q108.029 129.948 108.029 122.842 Q108.029 115.712 106.2 112.17 Q104.395 108.606 100.76 108.606 M100.76 104.902 Q106.571 104.902 109.626 109.508 Q112.705 114.092 112.705 122.842 Q112.705 131.568 109.626 136.175 Q106.571 140.758 100.76 140.758 Q94.9502 140.758 91.8715 136.175 Q88.816 131.568 88.816 122.842 Q88.816 114.092 91.8715 109.508 Q94.9502 104.902 100.76 104.902 Z" fill="#000000" fill-rule="nonzero" fill-opacity="1" /><path clip-path="url(#clip310)" d="M120.922 134.207 L125.807 134.207 L125.807 140.087 L120.922 140.087 L120.922 134.207 Z" fill="#000000" fill-rule="nonzero" fill-opacity="1" /><path clip-path="url(#clip310)" d="M145.992 108.606 Q142.381 108.606 140.552 112.17 Q138.746 115.712 138.746 122.842 Q138.746 129.948 140.552 133.513 Q142.381 137.054 145.992 137.054 Q149.626 137.054 151.431 133.513 Q153.26 129.948 153.26 122.842 Q153.26 115.712 151.431 112.17 Q149.626 108.606 145.992 108.606 M145.992 104.902 Q151.802 104.902 154.857 109.508 Q157.936 114.092 157.936 122.842 Q157.936 131.568 154.857 136.175 Q151.802 140.758 145.992 140.758 Q140.181 140.758 137.103 136.175 Q134.047 131.568 134.047 122.842 Q134.047 114.092 137.103 109.508 Q140.181 104.902 145.992 104.902 Z" fill="#000000" fill-rule="nonzero" fill-opacity="1" /><path clip-path="url(#clip310)" d="M166.964 136.152 L174.603 136.152 L174.603 109.786 L166.292 111.453 L166.292 107.193 L174.556 105.527 L179.232 105.527 L179.232 136.152 L186.871 136.152 L186.871 140.087 L166.964 140.087 L166.964 136.152 Z" fill="#000000" fill-rule="nonzero" fill-opacity="1" /><path clip-path="url(#clip310)" d="M206.315 108.606 Q202.704 108.606 200.876 112.17 Q199.07 115.712 199.07 122.842 Q199.07 129.948 200.876 133.513 Q202.704 137.054 206.315 137.054 Q209.95 137.054 211.755 133.513 Q213.584 129.948 213.584 122.842 Q213.584 115.712 211.755 112.17 Q209.95 108.606 206.315 108.606 M206.315 104.902 Q212.126 104.902 215.181 109.508 Q218.26 114.092 218.26 122.842 Q218.26 131.568 215.181 136.175 Q212.126 140.758 206.315 140.758 Q200.505 140.758 197.427 136.175 Q194.371 131.568 194.371 122.842 Q194.371 114.092 197.427 109.508 Q200.505 104.902 206.315 104.902 Z" fill="#000000" fill-rule="nonzero" fill-opacity="1" /><polyline clip-path="url(#clip312)" style="stroke:#009af9; stroke-linecap:round; stroke-linejoin:round; stroke-width:4; stroke-opacity:1; fill:none" points="313.651,907.984 317.556,952.735 321.461,996.724 325.365,1038.85 329.27,1078.08 333.175,1113.5 337.08,1144.32 340.984,1169.71 344.889,1189.21 348.794,1202.35 352.699,1208.99 356.604,1209.1 360.508,1202.81 364.413,1190.47 368.318,1172.47 372.223,1149.36 376.127,1121.77 380.032,1090.43 383.937,1056.17 387.842,1019.6 391.746,981.615 395.651,942.87 399.556,904.089 403.461,865.968 407.365,829.216 411.27,794.397 415.175,762.013 419.08,732.716 422.984,706.83 426.889,684.625 430.794,666.513 434.699,652.601 438.603,642.986 442.508,637.557 446.413,636.32 450.318,638.827 454.223,644.644 458.127,653.262 462.032,663.941 465.937,675.98 469.842,688.521 473.746,700.703 477.651,711.673 481.556,720.541 485.461,726.522 489.365,729 493.27,727.31 497.175,721.12 501.08,710.189 504.984,694.511 508.889,674.23 512.794,649.718 516.699,621.553 520.603,590.42 524.508,557.081 528.413,522.394 532.318,487.308 536.222,452.779 540.127,419.682 544.032,388.813 547.937,360.963 551.842,336.558 555.746,316.152 559.651,299.943 563.556,288.051 567.461,280.458 571.365,277.136 575.27,277.697 579.175,281.784 583.08,289.232 586.984,299.44 590.889,312.146 594.794,327.042 598.699,343.73 602.603,362.107 606.508,382.028 610.413,403.393 614.318,426.194 618.222,450.555 622.127,476.591 626.032,504.45 629.937,534.287 633.841,566.327 637.746,600.679 641.651,637.434 645.556,676.722 649.461,718.471 653.365,762.552 657.27,808.765 661.175,856.776 665.08,906.3 668.984,956.638 672.889,1007.39 676.794,1057.93 680.699,1107.57 684.603,1155.65 688.508,1201.68 692.413,1244.88 696.318,1284.74 700.222,1320.74 704.127,1352.58 708.032,1379.92 711.937,1402.6 715.841,1420.51 719.746,1433.56 723.651,1441.89 727.556,1445.72 731.46,1445.2 735.365,1440.56 739.27,1432.13 743.175,1420.25 747.08,1405.25 750.984,1387.44 754.889,1367.13 758.794,1344.68 762.699,1320.38 766.603,1294.59 770.508,1267.76 774.413,1240.15 778.318,1212.09 782.222,1183.97 786.127,1156.14 790.032,1129 793.937,1102.88 797.841,1078.13 801.746,1055.03 805.651,1033.84 809.556,1014.79 813.46,998.014 817.365,983.553 821.27,971.464 825.175,961.613 829.079,953.822 832.984,947.825 836.889,943.383 840.794,940.17 844.699,937.826 848.603,935.781 852.508,933.715 856.413,931.143 860.318,927.642 864.222,922.938 868.127,916.566 872.032,908.277 875.937,897.76 879.841,884.954 883.746,869.734 887.651,851.949 891.556,831.851 895.46,809.495 899.365,785.083 903.27,759.113 907.175,731.92 911.079,704.171 914.984,676.518 918.889,649.629 922.794,624.414 926.698,601.664 930.603,582.321 934.508,567.194 938.413,557.112 942.318,552.714 946.222,554.571 950.127,563.016 954.032,578.325 957.937,600.443 961.841,629.101 965.746,663.758 969.651,703.764 973.556,748.216 977.46,795.98 981.365,845.916 985.27,896.785 989.175,947.128 993.079,995.7 996.984,1041.19 1000.89,1082.35 1004.79,1118.07 1008.7,1147.58 1012.6,1170 1016.51,1184.78 1020.41,1191.57 1024.32,1190.21 1028.22,1180.67 1032.13,1163.25 1036.03,1138.38 1039.94,1106.52 1043.84,1068.39 1047.75,1024.99 1051.65,977.255 1055.56,926.224 1059.46,873.001 1063.37,818.804 1067.27,764.842 1071.17,712.222 1075.08,662.17 1078.98,615.756 1082.89,574.027 1086.79,537.827 1090.7,508.055 1094.6,485.402 1098.51,470.28 1102.41,463.129 1106.32,464.062 1110.22,473.065 1114.13,490.014 1118.03,514.435 1121.94,545.791 1125.84,583.347 1129.75,626.179 1133.65,673.238 1137.56,723.427 1141.46,775.597 1145.37,828.435 1149.27,880.668 1153.17,931.07 1157.08,978.412 1160.98,1021.56 1164.89,1059.56 1168.79,1091.48 1172.7,1116.52 1176.6,1134.13 1180.51,1143.67 1184.41,1145.15 1188.32,1138.22 1192.22,1123.03 1196.13,1099.7 1200.03,1068.69 1203.94,1030.61 1207.84,986.006 1211.75,935.861 1215.65,881.123 1219.56,822.806 1223.46,762.165 1227.37,700.448 1231.27,638.921 1235.17,578.977 1239.08,521.798 1242.98,468.722 1246.89,420.684 1250.79,378.819 1254.7,343.887 1258.6,316.51 1262.51,297.074 1266.41,285.789 1270.32,282.571 1274.22,287.09 1278.13,298.926 1282.03,317.483 1285.94,341.843 1289.84,371.367 1293.75,404.861 1297.65,441.37 1301.56,479.828 1305.46,519.458 1309.36,559.275 1313.27,598.598 1317.17,636.801 1321.08,673.355 1324.98,707.795 1328.89,740.043 1332.79,769.932 1336.7,797.391 1340.6,822.415 1344.51,845.212 1348.41,865.816 1352.32,884.351 1356.22,900.957 1360.13,915.614 1364.03,928.162 1367.94,938.624 1371.84,946.817 1375.75,952.652 1379.65,955.787 1383.56,956.117 1387.46,953.497 1391.36,947.757 1395.27,938.816 1399.17,926.782 1403.08,911.743 1406.98,893.964 1410.89,873.899 1414.79,851.9 1418.7,828.471 1422.6,804.267 1426.51,779.921 1430.41,756.04 1434.32,733.29 1438.22,712.301 1442.13,693.511 1446.03,677.396 1449.94,664.347 1453.84,654.532 1457.75,648.071 1461.65,645.122 1465.56,645.557 1469.46,649.276 1473.36,655.987 1477.27,665.522 1481.17,677.467 1485.08,691.429 1488.98,707.038 1492.89,723.852 1496.79,741.456 1500.7,759.319 1504.6,777.133 1508.51,794.465 1512.41,810.894 1516.32,826.06 1520.22,839.679 1524.13,851.564 1528.03,861.356 1531.94,868.893 1535.84,874.131 1539.75,876.932 1543.65,877.292 1547.56,875.229 1551.46,870.797 1555.36,864.103 1559.27,855.389 1563.17,844.895 1567.08,832.757 1570.98,819.301 1574.89,804.925 1578.79,789.855 1582.7,774.4 1586.6,758.843 1590.51,743.523 1594.41,728.47 1598.32,713.923 1602.22,699.999 1606.13,686.44 1610.03,673.357 1613.94,660.461 1617.84,647.591 1621.75,634.366 1625.65,620.432 1629.56,605.434 1633.46,589.127 1637.36,571.247 1641.27,551.571 1645.17,529.853 1649.08,506.067 1652.98,480.331 1656.89,452.857 1660.79,423.852 1664.7,393.608 1668.6,362.608 1672.51,331.227 1676.41,300.058 1680.32,269.633 1684.22,240.415 1688.13,212.894 1692.03,187.42 1695.94,164.454 1699.84,144.23 1703.75,126.968 1707.65,112.831 1711.56,101.927 1715.46,94.1893 1719.36,89.5972 1723.27,87.9763 1727.17,89.1774 1731.08,92.9284 1734.98,99.021 1738.89,107.163 1742.79,117.028 1746.7,128.423 1750.6,141.125 1754.51,154.77 1758.41,169.447 1762.32,184.862 1766.22,201.031 1770.13,217.914 1774.03,235.676 1777.94,254.25 1781.84,273.913 1785.75,294.746 1789.65,316.94 1793.56,340.498 1797.46,365.697 1801.36,392.437 1805.27,420.968 1809.17,451.133 1813.08,482.823 1816.98,515.896 1820.89,550.182 1824.79,585.362 1828.7,621.257 1832.6,657.548 1836.51,693.88 1840.41,730.017 1844.32,765.738 1848.22,800.753 1852.13,834.877 1856.03,867.964 1859.94,899.863 1863.84,930.487 1867.75,959.816 1871.65,987.757 1875.56,1014.16 1879.46,1039.01 1883.36,1062.34 1887.27,1083.99 1891.17,1103.67 1895.08,1121.43 1898.98,1137.01 1902.89,1150.2 1906.79,1160.73 1910.7,1168.45 1914.6,1173.04 1918.51,1174.24 1922.41,1171.93 1926.32,1165.95 1930.22,1156.13 1934.13,1142.37 1938.03,1124.63 1941.94,1102.9 1945.84,1077.25 1949.75,1047.77 1953.65,1014.48 1957.56,977.664 1961.46,937.541 1965.36,894.327 1969.27,848.249 1973.17,799.638 1977.08,748.84 1980.98,696.34 1984.89,642.585 1988.79,588.014 1992.7,533.205 1996.6,478.817 2000.51,425.517 2004.41,374.049 2008.32,325.175 2012.22,279.695 2016.13,238.323 2020.03,201.922 2023.94,171.136 2027.84,146.612 2031.75,128.911 2035.65,118.532 2039.56,115.72 2043.46,120.626 2047.36,133.419 2051.27,153.766 2055.17,181.338 2059.08,215.655 2062.98,255.962 2066.89,301.486 2070.79,351.353 2074.7,404.34 2078.6,459.4 2082.51,515.344 2086.41,570.836 2090.32,624.674 2094.22,675.856 2098.13,723.132 2102.03,765.547 2105.94,802.285 2109.84,832.751 2113.75,856.178 2117.65,872.483 2121.56,881.346 2125.46,882.949 2129.36,877.633 2133.27,865.85 2137.17,848.225 2141.08,825.583 2144.98,798.749 2148.89,768.747 2152.79,736.66 2156.7,703.38 2160.6,669.973 2164.51,637.37 2168.41,606.404 2172.32,577.776 2176.22,552.044 2180.13,529.665 2184.03,510.867 2187.94,495.74 2191.84,484.292 2195.75,476.315 2199.65,471.46 2203.56,469.415 2207.46,469.874 2211.36,472.235 2215.27,476.069 2219.17,481.107 2223.08,486.935 2226.98,493.361 2230.89,500.262 2234.79,507.711 2238.7,515.71 2242.6,524.493 2246.51,534.5 2250.41,545.948 2254.32,559.382 2258.22,575.314 2262.13,593.978 2266.03,615.885 2269.94,641.312 2273.84,670.304 2277.75,702.893 2281.65,738.957 2285.55,778.115 2289.46,819.78 2293.36,863.345 "/>
<path clip-path="url(#clip310)" d="M2020.53 1438.47 L2282.81 1438.47 L2282.81 1334.79 L2020.53 1334.79  Z" fill="#ffffff" fill-rule="evenodd" fill-opacity="1"/>
<polyline clip-path="url(#clip310)" style="stroke:#000000; stroke-linecap:round; stroke-linejoin:round; stroke-width:4; stroke-opacity:1; fill:none" points="2020.53,1438.47 2282.81,1438.47 2282.81,1334.79 2020.53,1334.79 2020.53,1438.47 "/>
<polyline clip-path="url(#clip310)" style="stroke:#009af9; stroke-linecap:round; stroke-linejoin:round; stroke-width:4; stroke-opacity:1; fill:none" points="2043.84,1386.63 2183.74,1386.63 "/>
<path clip-path="url(#clip310)" d="M2220.9 1406.32 Q2219.1 1410.95 2217.38 1412.36 Q2215.67 1413.78 2212.8 1413.78 L2209.4 1413.78 L2209.4 1410.21 L2211.9 1410.21 Q2213.66 1410.21 2214.63 1409.38 Q2215.6 1408.54 2216.78 1405.44 L2217.55 1403.5 L2207.06 1377.99 L2211.57 1377.99 L2219.67 1398.27 L2227.78 1377.99 L2232.29 1377.99 L2220.9 1406.32 Z" fill="#000000" fill-rule="nonzero" fill-opacity="1" /><path clip-path="url(#clip310)" d="M2239.58 1399.98 L2247.22 1399.98 L2247.22 1373.61 L2238.91 1375.28 L2238.91 1371.02 L2247.17 1369.35 L2251.85 1369.35 L2251.85 1399.98 L2259.49 1399.98 L2259.49 1403.91 L2239.58 1403.91 L2239.58 1399.98 Z" fill="#000000" fill-rule="nonzero" fill-opacity="1" /></svg>
