<?xml version="1.0" encoding="utf-8"?>
<svg xmlns="http://www.w3.org/2000/svg" xmlns:xlink="http://www.w3.org/1999/xlink" width="600" height="400" viewBox="0 0 2400 1600">
<defs>
  <clipPath id="clip350">
    <rect x="0" y="0" width="2400" height="1600"/>
  </clipPath>
</defs>
<path clip-path="url(#clip350)" d="M0 1600 L2400 1600 L2400 0 L0 0  Z" fill="#ffffff" fill-rule="evenodd" fill-opacity="1"/>
<defs>
  <clipPath id="clip351">
    <rect x="480" y="0" width="1681" height="1600"/>
  </clipPath>
</defs>
<path clip-path="url(#clip350)" d="M224.098 1486.45 L2352.76 1486.45 L2352.76 47.2441 L224.098 47.2441  Z" fill="#ffffff" fill-rule="evenodd" fill-opacity="1"/>
<defs>
  <clipPath id="clip352">
    <rect x="224" y="47" width="2130" height="1440"/>
  </clipPath>
</defs>
<polyline clip-path="url(#clip352)" style="stroke:#000000; stroke-linecap:round; stroke-linejoin:round; stroke-width:2; stroke-opacity:0.1; fill:none" points="280.382,1486.45 280.382,47.2441 "/>
<polyline clip-path="url(#clip352)" style="stroke:#000000; stroke-linecap:round; stroke-linejoin:round; stroke-width:2; stroke-opacity:0.1; fill:none" points="676.47,1486.45 676.47,47.2441 "/>
<polyline clip-path="url(#clip352)" style="stroke:#000000; stroke-linecap:round; stroke-linejoin:round; stroke-width:2; stroke-opacity:0.1; fill:none" points="1072.56,1486.45 1072.56,47.2441 "/>
<polyline clip-path="url(#clip352)" style="stroke:#000000; stroke-linecap:round; stroke-linejoin:round; stroke-width:2; stroke-opacity:0.1; fill:none" points="1468.65,1486.45 1468.65,47.2441 "/>
<polyline clip-path="url(#clip352)" style="stroke:#000000; stroke-linecap:round; stroke-linejoin:round; stroke-width:2; stroke-opacity:0.1; fill:none" points="1864.74,1486.45 1864.74,47.2441 "/>
<polyline clip-path="url(#clip352)" style="stroke:#000000; stroke-linecap:round; stroke-linejoin:round; stroke-width:2; stroke-opacity:0.1; fill:none" points="2260.82,1486.45 2260.82,47.2441 "/>
<polyline clip-path="url(#clip350)" style="stroke:#000000; stroke-linecap:round; stroke-linejoin:round; stroke-width:4; stroke-opacity:1; fill:none" points="224.098,1486.45 2352.76,1486.45 "/>
<polyline clip-path="url(#clip350)" style="stroke:#000000; stroke-linecap:round; stroke-linejoin:round; stroke-width:4; stroke-opacity:1; fill:none" points="280.382,1486.45 280.382,1467.55 "/>
<polyline clip-path="url(#clip350)" style="stroke:#000000; stroke-linecap:round; stroke-linejoin:round; stroke-width:4; stroke-opacity:1; fill:none" points="676.47,1486.45 676.47,1467.55 "/>
<polyline clip-path="url(#clip350)" style="stroke:#000000; stroke-linecap:round; stroke-linejoin:round; stroke-width:4; stroke-opacity:1; fill:none" points="1072.56,1486.45 1072.56,1467.55 "/>
<polyline clip-path="url(#clip350)" style="stroke:#000000; stroke-linecap:round; stroke-linejoin:round; stroke-width:4; stroke-opacity:1; fill:none" points="1468.65,1486.45 1468.65,1467.55 "/>
<polyline clip-path="url(#clip350)" style="stroke:#000000; stroke-linecap:round; stroke-linejoin:round; stroke-width:4; stroke-opacity:1; fill:none" points="1864.74,1486.45 1864.74,1467.55 "/>
<polyline clip-path="url(#clip350)" style="stroke:#000000; stroke-linecap:round; stroke-linejoin:round; stroke-width:4; stroke-opacity:1; fill:none" points="2260.82,1486.45 2260.82,1467.55 "/>
<path clip-path="url(#clip350)" d="M280.382 1517.37 Q276.771 1517.37 274.942 1520.93 Q273.137 1524.47 273.137 1531.6 Q273.137 1538.71 274.942 1542.27 Q276.771 1545.82 280.382 1545.82 Q284.016 1545.82 285.822 1542.27 Q287.651 1538.71 287.651 1531.6 Q287.651 1524.47 285.822 1520.93 Q284.016 1517.37 280.382 1517.37 M280.382 1513.66 Q286.192 1513.66 289.248 1518.27 Q292.326 1522.85 292.326 1531.6 Q292.326 1540.33 289.248 1544.94 Q286.192 1549.52 280.382 1549.52 Q274.572 1549.52 271.493 1544.94 Q268.438 1540.33 268.438 1531.6 Q268.438 1522.85 271.493 1518.27 Q274.572 1513.66 280.382 1513.66 Z" fill="#000000" fill-rule="nonzero" fill-opacity="1" /><path clip-path="url(#clip350)" d="M636.077 1544.91 L643.716 1544.91 L643.716 1518.55 L635.406 1520.21 L635.406 1515.95 L643.67 1514.29 L648.346 1514.29 L648.346 1544.91 L655.984 1544.91 L655.984 1548.85 L636.077 1548.85 L636.077 1544.91 Z" fill="#000000" fill-rule="nonzero" fill-opacity="1" /><path clip-path="url(#clip350)" d="M675.429 1517.37 Q671.818 1517.37 669.989 1520.93 Q668.183 1524.47 668.183 1531.6 Q668.183 1538.71 669.989 1542.27 Q671.818 1545.82 675.429 1545.82 Q679.063 1545.82 680.869 1542.27 Q682.697 1538.71 682.697 1531.6 Q682.697 1524.47 680.869 1520.93 Q679.063 1517.37 675.429 1517.37 M675.429 1513.66 Q681.239 1513.66 684.294 1518.27 Q687.373 1522.85 687.373 1531.6 Q687.373 1540.33 684.294 1544.94 Q681.239 1549.52 675.429 1549.52 Q669.619 1549.52 666.54 1544.94 Q663.484 1540.33 663.484 1531.6 Q663.484 1522.85 666.54 1518.27 Q669.619 1513.66 675.429 1513.66 Z" fill="#000000" fill-rule="nonzero" fill-opacity="1" /><path clip-path="url(#clip350)" d="M705.591 1517.37 Q701.98 1517.37 700.151 1520.93 Q698.345 1524.47 698.345 1531.6 Q698.345 1538.71 700.151 1542.27 Q701.98 1545.82 705.591 1545.82 Q709.225 1545.82 711.03 1542.27 Q712.859 1538.71 712.859 1531.6 Q712.859 1524.47 711.03 1520.93 Q709.225 1517.37 705.591 1517.37 M705.591 1513.66 Q711.401 1513.66 714.456 1518.27 Q717.535 1522.85 717.535 1531.6 Q717.535 1540.33 714.456 1544.94 Q711.401 1549.52 705.591 1549.52 Q699.78 1549.52 696.702 1544.94 Q693.646 1540.33 693.646 1531.6 Q693.646 1522.85 696.702 1518.27 Q699.78 1513.66 705.591 1513.66 Z" fill="#000000" fill-rule="nonzero" fill-opacity="1" /><path clip-path="url(#clip350)" d="M1036.25 1544.91 L1052.57 1544.91 L1052.57 1548.85 L1030.63 1548.85 L1030.63 1544.91 Q1033.29 1542.16 1037.87 1537.53 Q1042.48 1532.88 1043.66 1531.53 Q1045.9 1529.01 1046.78 1527.27 Q1047.69 1525.51 1047.69 1523.82 Q1047.69 1521.07 1045.74 1519.33 Q1043.82 1517.6 1040.72 1517.6 Q1038.52 1517.6 1036.07 1518.36 Q1033.64 1519.13 1030.86 1520.68 L1030.86 1515.95 Q1033.68 1514.82 1036.14 1514.24 Q1038.59 1513.66 1040.63 1513.66 Q1046 1513.66 1049.19 1516.35 Q1052.39 1519.03 1052.39 1523.52 Q1052.39 1525.65 1051.58 1527.57 Q1050.79 1529.47 1048.68 1532.07 Q1048.1 1532.74 1045 1535.95 Q1041.9 1539.15 1036.25 1544.91 Z" fill="#000000" fill-rule="nonzero" fill-opacity="1" /><path clip-path="url(#clip350)" d="M1072.39 1517.37 Q1068.77 1517.37 1066.95 1520.93 Q1065.14 1524.47 1065.14 1531.6 Q1065.14 1538.71 1066.95 1542.27 Q1068.77 1545.82 1072.39 1545.82 Q1076.02 1545.82 1077.82 1542.27 Q1079.65 1538.71 1079.65 1531.6 Q1079.65 1524.47 1077.82 1520.93 Q1076.02 1517.37 1072.39 1517.37 M1072.39 1513.66 Q1078.2 1513.66 1081.25 1518.27 Q1084.33 1522.85 1084.33 1531.6 Q1084.33 1540.33 1081.25 1544.94 Q1078.2 1549.52 1072.39 1549.52 Q1066.57 1549.52 1063.5 1544.94 Q1060.44 1540.33 1060.44 1531.6 Q1060.44 1522.85 1063.5 1518.27 Q1066.57 1513.66 1072.39 1513.66 Z" fill="#000000" fill-rule="nonzero" fill-opacity="1" /><path clip-path="url(#clip350)" d="M1102.55 1517.37 Q1098.94 1517.37 1097.11 1520.93 Q1095.3 1524.47 1095.3 1531.6 Q1095.3 1538.71 1097.11 1542.27 Q1098.94 1545.82 1102.55 1545.82 Q1106.18 1545.82 1107.99 1542.27 Q1109.82 1538.71 1109.82 1531.6 Q1109.82 1524.47 1107.99 1520.93 Q1106.18 1517.37 1102.55 1517.37 M1102.55 1513.66 Q1108.36 1513.66 1111.41 1518.27 Q1114.49 1522.85 1114.49 1531.6 Q1114.49 1540.33 1111.41 1544.94 Q1108.36 1549.52 1102.55 1549.52 Q1096.74 1549.52 1093.66 1544.94 Q1090.6 1540.33 1090.6 1531.6 Q1090.6 1522.85 1093.66 1518.27 Q1096.74 1513.66 1102.55 1513.66 Z" fill="#000000" fill-rule="nonzero" fill-opacity="1" /><path clip-path="url(#clip350)" d="M1442.41 1530.21 Q1445.77 1530.93 1447.64 1533.2 Q1449.54 1535.47 1449.54 1538.8 Q1449.54 1543.92 1446.02 1546.72 Q1442.5 1549.52 1436.02 1549.52 Q1433.84 1549.52 1431.53 1549.08 Q1429.24 1548.66 1426.78 1547.81 L1426.78 1543.29 Q1428.73 1544.43 1431.04 1545.01 Q1433.36 1545.58 1435.88 1545.58 Q1440.28 1545.58 1442.57 1543.85 Q1444.89 1542.11 1444.89 1538.8 Q1444.89 1535.75 1442.73 1534.03 Q1440.6 1532.3 1436.78 1532.3 L1432.76 1532.3 L1432.76 1528.45 L1436.97 1528.45 Q1440.42 1528.45 1442.25 1527.09 Q1444.08 1525.7 1444.08 1523.11 Q1444.08 1520.45 1442.18 1519.03 Q1440.3 1517.6 1436.78 1517.6 Q1434.86 1517.6 1432.66 1518.01 Q1430.46 1518.43 1427.83 1519.31 L1427.83 1515.14 Q1430.49 1514.4 1432.8 1514.03 Q1435.14 1513.66 1437.2 1513.66 Q1442.52 1513.66 1445.63 1516.09 Q1448.73 1518.5 1448.73 1522.62 Q1448.73 1525.49 1447.08 1527.48 Q1445.44 1529.45 1442.41 1530.21 Z" fill="#000000" fill-rule="nonzero" fill-opacity="1" /><path clip-path="url(#clip350)" d="M1468.4 1517.37 Q1464.79 1517.37 1462.96 1520.93 Q1461.16 1524.47 1461.16 1531.6 Q1461.16 1538.71 1462.96 1542.27 Q1464.79 1545.82 1468.4 1545.82 Q1472.04 1545.82 1473.84 1542.27 Q1475.67 1538.71 1475.67 1531.6 Q1475.67 1524.47 1473.84 1520.93 Q1472.04 1517.37 1468.4 1517.37 M1468.4 1513.66 Q1474.21 1513.66 1477.27 1518.27 Q1480.35 1522.85 1480.35 1531.6 Q1480.35 1540.33 1477.27 1544.94 Q1474.21 1549.52 1468.4 1549.52 Q1462.59 1549.52 1459.52 1544.94 Q1456.46 1540.33 1456.46 1531.6 Q1456.46 1522.85 1459.52 1518.27 Q1462.59 1513.66 1468.4 1513.66 Z" fill="#000000" fill-rule="nonzero" fill-opacity="1" /><path clip-path="url(#clip350)" d="M1498.57 1517.37 Q1494.95 1517.37 1493.13 1520.93 Q1491.32 1524.47 1491.32 1531.6 Q1491.32 1538.71 1493.13 1542.27 Q1494.95 1545.82 1498.57 1545.82 Q1502.2 1545.82 1504.01 1542.27 Q1505.83 1538.71 1505.83 1531.6 Q1505.83 1524.47 1504.01 1520.93 Q1502.2 1517.37 1498.57 1517.37 M1498.57 1513.66 Q1504.38 1513.66 1507.43 1518.27 Q1510.51 1522.85 1510.51 1531.6 Q1510.51 1540.33 1507.43 1544.94 Q1504.38 1549.52 1498.57 1549.52 Q1492.76 1549.52 1489.68 1544.94 Q1486.62 1540.33 1486.62 1531.6 Q1486.62 1522.85 1489.68 1518.27 Q1492.76 1513.66 1498.57 1513.66 Z" fill="#000000" fill-rule="nonzero" fill-opacity="1" /><path clip-path="url(#clip350)" d="M1837.83 1518.36 L1826.02 1536.81 L1837.83 1536.81 L1837.83 1518.36 M1836.6 1514.29 L1842.48 1514.29 L1842.48 1536.81 L1847.41 1536.81 L1847.41 1540.7 L1842.48 1540.7 L1842.48 1548.85 L1837.83 1548.85 L1837.83 1540.7 L1822.22 1540.7 L1822.22 1536.19 L1836.6 1514.29 Z" fill="#000000" fill-rule="nonzero" fill-opacity="1" /><path clip-path="url(#clip350)" d="M1865.14 1517.37 Q1861.53 1517.37 1859.7 1520.93 Q1857.9 1524.47 1857.9 1531.6 Q1857.9 1538.71 1859.7 1542.27 Q1861.53 1545.82 1865.14 1545.82 Q1868.77 1545.82 1870.58 1542.27 Q1872.41 1538.71 1872.41 1531.6 Q1872.41 1524.47 1870.58 1520.93 Q1868.77 1517.37 1865.14 1517.37 M1865.14 1513.66 Q1870.95 1513.66 1874.01 1518.27 Q1877.08 1522.85 1877.08 1531.6 Q1877.08 1540.33 1874.01 1544.94 Q1870.95 1549.52 1865.14 1549.52 Q1859.33 1549.52 1856.25 1544.94 Q1853.2 1540.33 1853.2 1531.6 Q1853.2 1522.85 1856.25 1518.27 Q1859.33 1513.66 1865.14 1513.66 Z" fill="#000000" fill-rule="nonzero" fill-opacity="1" /><path clip-path="url(#clip350)" d="M1895.3 1517.37 Q1891.69 1517.37 1889.86 1520.93 Q1888.06 1524.47 1888.06 1531.6 Q1888.06 1538.71 1889.86 1542.27 Q1891.69 1545.82 1895.3 1545.82 Q1898.94 1545.82 1900.74 1542.27 Q1902.57 1538.71 1902.57 1531.6 Q1902.57 1524.47 1900.74 1520.93 Q1898.94 1517.37 1895.3 1517.37 M1895.3 1513.66 Q1901.11 1513.66 1904.17 1518.27 Q1907.25 1522.85 1907.25 1531.6 Q1907.25 1540.33 1904.17 1544.94 Q1901.11 1549.52 1895.3 1549.52 Q1889.49 1549.52 1886.41 1544.94 Q1883.36 1540.33 1883.36 1531.6 Q1883.36 1522.85 1886.41 1518.27 Q1889.49 1513.66 1895.3 1513.66 Z" fill="#000000" fill-rule="nonzero" fill-opacity="1" /><path clip-path="url(#clip350)" d="M2220.44 1514.29 L2238.8 1514.29 L2238.8 1518.22 L2224.72 1518.22 L2224.72 1526.7 Q2225.74 1526.35 2226.76 1526.19 Q2227.78 1526 2228.8 1526 Q2234.59 1526 2237.97 1529.17 Q2241.34 1532.34 2241.34 1537.76 Q2241.34 1543.34 2237.87 1546.44 Q2234.4 1549.52 2228.08 1549.52 Q2225.91 1549.52 2223.64 1549.15 Q2221.39 1548.78 2218.98 1548.04 L2218.98 1543.34 Q2221.07 1544.47 2223.29 1545.03 Q2225.51 1545.58 2227.99 1545.58 Q2231.99 1545.58 2234.33 1543.48 Q2236.67 1541.37 2236.67 1537.76 Q2236.67 1534.15 2234.33 1532.04 Q2231.99 1529.94 2227.99 1529.94 Q2226.11 1529.94 2224.24 1530.35 Q2222.39 1530.77 2220.44 1531.65 L2220.44 1514.29 Z" fill="#000000" fill-rule="nonzero" fill-opacity="1" /><path clip-path="url(#clip350)" d="M2260.56 1517.37 Q2256.95 1517.37 2255.12 1520.93 Q2253.31 1524.47 2253.31 1531.6 Q2253.31 1538.71 2255.12 1542.27 Q2256.95 1545.82 2260.56 1545.82 Q2264.19 1545.82 2266 1542.27 Q2267.83 1538.71 2267.83 1531.6 Q2267.83 1524.47 2266 1520.93 Q2264.19 1517.37 2260.56 1517.37 M2260.56 1513.66 Q2266.37 1513.66 2269.42 1518.27 Q2272.5 1522.85 2272.5 1531.6 Q2272.5 1540.33 2269.42 1544.94 Q2266.37 1549.52 2260.56 1549.52 Q2254.75 1549.52 2251.67 1544.94 Q2248.61 1540.33 2248.61 1531.6 Q2248.61 1522.85 2251.67 1518.27 Q2254.75 1513.66 2260.56 1513.66 Z" fill="#000000" fill-rule="nonzero" fill-opacity="1" /><path clip-path="url(#clip350)" d="M2290.72 1517.37 Q2287.11 1517.37 2285.28 1520.93 Q2283.47 1524.47 2283.47 1531.6 Q2283.47 1538.71 2285.28 1542.27 Q2287.11 1545.82 2290.72 1545.82 Q2294.35 1545.82 2296.16 1542.27 Q2297.99 1538.71 2297.99 1531.6 Q2297.99 1524.47 2296.16 1520.93 Q2294.35 1517.37 2290.72 1517.37 M2290.72 1513.66 Q2296.53 1513.66 2299.59 1518.27 Q2302.66 1522.85 2302.66 1531.6 Q2302.66 1540.33 2299.59 1544.94 Q2296.53 1549.52 2290.72 1549.52 Q2284.91 1549.52 2281.83 1544.94 Q2278.78 1540.33 2278.78 1531.6 Q2278.78 1522.85 2281.83 1518.27 Q2284.91 1513.66 2290.72 1513.66 Z" fill="#000000" fill-rule="nonzero" fill-opacity="1" /><polyline clip-path="url(#clip352)" style="stroke:#000000; stroke-linecap:round; stroke-linejoin:round; stroke-width:2; stroke-opacity:0.1; fill:none" points="224.098,1306.05 2352.76,1306.05 "/>
<polyline clip-path="url(#clip352)" style="stroke:#000000; stroke-linecap:round; stroke-linejoin:round; stroke-width:2; stroke-opacity:0.1; fill:none" points="224.098,1037.15 2352.76,1037.15 "/>
<polyline clip-path="url(#clip352)" style="stroke:#000000; stroke-linecap:round; stroke-linejoin:round; stroke-width:2; stroke-opacity:0.1; fill:none" points="224.098,768.255 2352.76,768.255 "/>
<polyline clip-path="url(#clip352)" style="stroke:#000000; stroke-linecap:round; stroke-linejoin:round; stroke-width:2; stroke-opacity:0.1; fill:none" points="224.098,499.356 2352.76,499.356 "/>
<polyline clip-path="url(#clip352)" style="stroke:#000000; stroke-linecap:round; stroke-linejoin:round; stroke-width:2; stroke-opacity:0.1; fill:none" points="224.098,230.457 2352.76,230.457 "/>
<polyline clip-path="url(#clip350)" style="stroke:#000000; stroke-linecap:round; stroke-linejoin:round; stroke-width:4; stroke-opacity:1; fill:none" points="224.098,1486.45 224.098,47.2441 "/>
<polyline clip-path="url(#clip350)" style="stroke:#000000; stroke-linecap:round; stroke-linejoin:round; stroke-width:4; stroke-opacity:1; fill:none" points="224.098,1306.05 242.996,1306.05 "/>
<polyline clip-path="url(#clip350)" style="stroke:#000000; stroke-linecap:round; stroke-linejoin:round; stroke-width:4; stroke-opacity:1; fill:none" points="224.098,1037.15 242.996,1037.15 "/>
<polyline clip-path="url(#clip350)" style="stroke:#000000; stroke-linecap:round; stroke-linejoin:round; stroke-width:4; stroke-opacity:1; fill:none" points="224.098,768.255 242.996,768.255 "/>
<polyline clip-path="url(#clip350)" style="stroke:#000000; stroke-linecap:round; stroke-linejoin:round; stroke-width:4; stroke-opacity:1; fill:none" points="224.098,499.356 242.996,499.356 "/>
<polyline clip-path="url(#clip350)" style="stroke:#000000; stroke-linecap:round; stroke-linejoin:round; stroke-width:4; stroke-opacity:1; fill:none" points="224.098,230.457 242.996,230.457 "/>
<path clip-path="url(#clip350)" d="M50.9921 1306.5 L80.6679 1306.5 L80.6679 1310.44 L50.9921 1310.44 L50.9921 1306.5 Z" fill="#000000" fill-rule="nonzero" fill-opacity="1" /><path clip-path="url(#clip350)" d="M100.76 1291.85 Q97.1493 1291.85 95.3206 1295.42 Q93.515 1298.96 93.515 1306.09 Q93.515 1313.19 95.3206 1316.76 Q97.1493 1320.3 100.76 1320.3 Q104.395 1320.3 106.2 1316.76 Q108.029 1313.19 108.029 1306.09 Q108.029 1298.96 106.2 1295.42 Q104.395 1291.85 100.76 1291.85 M100.76 1288.15 Q106.571 1288.15 109.626 1292.75 Q112.705 1297.34 112.705 1306.09 Q112.705 1314.81 109.626 1319.42 Q106.571 1324 100.76 1324 Q94.9502 1324 91.8715 1319.42 Q88.816 1314.81 88.816 1306.09 Q88.816 1297.34 91.8715 1292.75 Q94.9502 1288.15 100.76 1288.15 Z" fill="#000000" fill-rule="nonzero" fill-opacity="1" /><path clip-path="url(#clip350)" d="M120.922 1317.45 L125.807 1317.45 L125.807 1323.33 L120.922 1323.33 L120.922 1317.45 Z" fill="#000000" fill-rule="nonzero" fill-opacity="1" /><path clip-path="url(#clip350)" d="M136.802 1319.4 L144.441 1319.4 L144.441 1293.03 L136.131 1294.7 L136.131 1290.44 L144.394 1288.77 L149.07 1288.77 L149.07 1319.4 L156.709 1319.4 L156.709 1323.33 L136.802 1323.33 L136.802 1319.4 Z" fill="#000000" fill-rule="nonzero" fill-opacity="1" /><path clip-path="url(#clip350)" d="M176.153 1291.85 Q172.542 1291.85 170.714 1295.42 Q168.908 1298.96 168.908 1306.09 Q168.908 1313.19 170.714 1316.76 Q172.542 1320.3 176.153 1320.3 Q179.788 1320.3 181.593 1316.76 Q183.422 1313.19 183.422 1306.09 Q183.422 1298.96 181.593 1295.42 Q179.788 1291.85 176.153 1291.85 M176.153 1288.15 Q181.964 1288.15 185.019 1292.75 Q188.098 1297.34 188.098 1306.09 Q188.098 1314.81 185.019 1319.42 Q181.964 1324 176.153 1324 Q170.343 1324 167.265 1319.42 Q164.209 1314.81 164.209 1306.09 Q164.209 1297.34 167.265 1292.75 Q170.343 1288.15 176.153 1288.15 Z" fill="#000000" fill-rule="nonzero" fill-opacity="1" /><path clip-path="url(#clip350)" d="M51.9875 1037.61 L81.6633 1037.61 L81.6633 1041.54 L51.9875 1041.54 L51.9875 1037.61 Z" fill="#000000" fill-rule="nonzero" fill-opacity="1" /><path clip-path="url(#clip350)" d="M101.756 1022.95 Q98.1447 1022.95 96.316 1026.52 Q94.5104 1030.06 94.5104 1037.19 Q94.5104 1044.3 96.316 1047.86 Q98.1447 1051.4 101.756 1051.4 Q105.39 1051.4 107.196 1047.86 Q109.024 1044.3 109.024 1037.19 Q109.024 1030.06 107.196 1026.52 Q105.39 1022.95 101.756 1022.95 M101.756 1019.25 Q107.566 1019.25 110.621 1023.86 Q113.7 1028.44 113.7 1037.19 Q113.7 1045.92 110.621 1050.52 Q107.566 1055.11 101.756 1055.11 Q95.9456 1055.11 92.8669 1050.52 Q89.8114 1045.92 89.8114 1037.19 Q89.8114 1028.44 92.8669 1023.86 Q95.9456 1019.25 101.756 1019.25 Z" fill="#000000" fill-rule="nonzero" fill-opacity="1" /><path clip-path="url(#clip350)" d="M121.918 1048.55 L126.802 1048.55 L126.802 1054.43 L121.918 1054.43 L121.918 1048.55 Z" fill="#000000" fill-rule="nonzero" fill-opacity="1" /><path clip-path="url(#clip350)" d="M146.987 1022.95 Q143.376 1022.95 141.547 1026.52 Q139.742 1030.06 139.742 1037.19 Q139.742 1044.3 141.547 1047.86 Q143.376 1051.4 146.987 1051.4 Q150.621 1051.4 152.427 1047.86 Q154.255 1044.3 154.255 1037.19 Q154.255 1030.06 152.427 1026.52 Q150.621 1022.95 146.987 1022.95 M146.987 1019.25 Q152.797 1019.25 155.853 1023.86 Q158.931 1028.44 158.931 1037.19 Q158.931 1045.92 155.853 1050.52 Q152.797 1055.11 146.987 1055.11 Q141.177 1055.11 138.098 1050.52 Q135.043 1045.92 135.043 1037.19 Q135.043 1028.44 138.098 1023.86 Q141.177 1019.25 146.987 1019.25 Z" fill="#000000" fill-rule="nonzero" fill-opacity="1" /><path clip-path="url(#clip350)" d="M167.195 1019.87 L185.552 1019.87 L185.552 1023.81 L171.478 1023.81 L171.478 1032.28 Q172.496 1031.93 173.515 1031.77 Q174.533 1031.59 175.552 1031.59 Q181.339 1031.59 184.718 1034.76 Q188.098 1037.93 188.098 1043.35 Q188.098 1048.92 184.626 1052.03 Q181.153 1055.11 174.834 1055.11 Q172.658 1055.11 170.39 1054.73 Q168.144 1054.36 165.737 1053.62 L165.737 1048.92 Q167.82 1050.06 170.042 1050.61 Q172.265 1051.17 174.741 1051.17 Q178.746 1051.17 181.084 1049.06 Q183.422 1046.96 183.422 1043.35 Q183.422 1039.74 181.084 1037.63 Q178.746 1035.52 174.741 1035.52 Q172.866 1035.52 170.991 1035.94 Q169.14 1036.36 167.195 1037.24 L167.195 1019.87 Z" fill="#000000" fill-rule="nonzero" fill-opacity="1" /><path clip-path="url(#clip350)" d="M100.76 754.054 Q97.1493 754.054 95.3206 757.619 Q93.515 761.16 93.515 768.29 Q93.515 775.396 95.3206 778.961 Q97.1493 782.503 100.76 782.503 Q104.395 782.503 106.2 778.961 Q108.029 775.396 108.029 768.29 Q108.029 761.16 106.2 757.619 Q104.395 754.054 100.76 754.054 M100.76 750.35 Q106.571 750.35 109.626 754.957 Q112.705 759.54 112.705 768.29 Q112.705 777.017 109.626 781.623 Q106.571 786.206 100.76 786.206 Q94.9502 786.206 91.8715 781.623 Q88.816 777.017 88.816 768.29 Q88.816 759.54 91.8715 754.957 Q94.9502 750.35 100.76 750.35 Z" fill="#000000" fill-rule="nonzero" fill-opacity="1" /><path clip-path="url(#clip350)" d="M120.922 779.656 L125.807 779.656 L125.807 785.535 L120.922 785.535 L120.922 779.656 Z" fill="#000000" fill-rule="nonzero" fill-opacity="1" /><path clip-path="url(#clip350)" d="M145.992 754.054 Q142.381 754.054 140.552 757.619 Q138.746 761.16 138.746 768.29 Q138.746 775.396 140.552 778.961 Q142.381 782.503 145.992 782.503 Q149.626 782.503 151.431 778.961 Q153.26 775.396 153.26 768.29 Q153.26 761.16 151.431 757.619 Q149.626 754.054 145.992 754.054 M145.992 750.35 Q151.802 750.35 154.857 754.957 Q157.936 759.54 157.936 768.29 Q157.936 777.017 154.857 781.623 Q151.802 786.206 145.992 786.206 Q140.181 786.206 137.103 781.623 Q134.047 777.017 134.047 768.29 Q134.047 759.54 137.103 754.957 Q140.181 750.35 145.992 750.35 Z" fill="#000000" fill-rule="nonzero" fill-opacity="1" /><path clip-path="url(#clip350)" d="M176.153 754.054 Q172.542 754.054 170.714 757.619 Q168.908 761.16 168.908 768.29 Q168.908 775.396 170.714 778.961 Q172.542 782.503 176.153 782.503 Q179.788 782.503 181.593 778.961 Q183.422 775.396 183.422 768.29 Q183.422 761.16 181.593 757.619 Q179.788 754.054 176.153 754.054 M176.153 750.35 Q181.964 750.35 185.019 754.957 Q188.098 759.54 188.098 768.29 Q188.098 777.017 185.019 781.623 Q181.964 786.206 176.153 786.206 Q170.343 786.206 167.265 781.623 Q164.209 777.017 164.209 768.29 Q164.209 759.54 167.265 754.957 Q170.343 750.35 176.153 750.35 Z" fill="#000000" fill-rule="nonzero" fill-opacity="1" /><path clip-path="url(#clip350)" d="M101.756 485.155 Q98.1447 485.155 96.316 488.72 Q94.5104 492.261 94.5104 499.391 Q94.5104 506.497 96.316 510.062 Q98.1447 513.604 101.756 513.604 Q105.39 513.604 107.196 510.062 Q109.024 506.497 109.024 499.391 Q109.024 492.261 107.196 488.72 Q105.39 485.155 101.756 485.155 M101.756 481.451 Q107.566 481.451 110.621 486.058 Q113.7 490.641 113.7 499.391 Q113.7 508.118 110.621 512.724 Q107.566 517.308 101.756 517.308 Q95.9456 517.308 92.8669 512.724 Q89.8114 508.118 89.8114 499.391 Q89.8114 490.641 92.8669 486.058 Q95.9456 481.451 101.756 481.451 Z" fill="#000000" fill-rule="nonzero" fill-opacity="1" /><path clip-path="url(#clip350)" d="M121.918 510.757 L126.802 510.757 L126.802 516.636 L121.918 516.636 L121.918 510.757 Z" fill="#000000" fill-rule="nonzero" fill-opacity="1" /><path clip-path="url(#clip350)" d="M146.987 485.155 Q143.376 485.155 141.547 488.72 Q139.742 492.261 139.742 499.391 Q139.742 506.497 141.547 510.062 Q143.376 513.604 146.987 513.604 Q150.621 513.604 152.427 510.062 Q154.255 506.497 154.255 499.391 Q154.255 492.261 152.427 488.72 Q150.621 485.155 146.987 485.155 M146.987 481.451 Q152.797 481.451 155.853 486.058 Q158.931 490.641 158.931 499.391 Q158.931 508.118 155.853 512.724 Q152.797 517.308 146.987 517.308 Q141.177 517.308 138.098 512.724 Q135.043 508.118 135.043 499.391 Q135.043 490.641 138.098 486.058 Q141.177 481.451 146.987 481.451 Z" fill="#000000" fill-rule="nonzero" fill-opacity="1" /><path clip-path="url(#clip350)" d="M167.195 482.076 L185.552 482.076 L185.552 486.011 L171.478 486.011 L171.478 494.484 Q172.496 494.136 173.515 493.974 Q174.533 493.789 175.552 493.789 Q181.339 493.789 184.718 496.96 Q188.098 500.132 188.098 505.548 Q188.098 511.127 184.626 514.229 Q181.153 517.308 174.834 517.308 Q172.658 517.308 170.39 516.937 Q168.144 516.567 165.737 515.826 L165.737 511.127 Q167.82 512.261 170.042 512.817 Q172.265 513.372 174.741 513.372 Q178.746 513.372 181.084 511.266 Q183.422 509.159 183.422 505.548 Q183.422 501.937 181.084 499.831 Q178.746 497.724 174.741 497.724 Q172.866 497.724 170.991 498.141 Q169.14 498.558 167.195 499.437 L167.195 482.076 Z" fill="#000000" fill-rule="nonzero" fill-opacity="1" /><path clip-path="url(#clip350)" d="M100.76 216.256 Q97.1493 216.256 95.3206 219.821 Q93.515 223.362 93.515 230.492 Q93.515 237.599 95.3206 241.163 Q97.1493 244.705 100.76 244.705 Q104.395 244.705 106.2 241.163 Q108.029 237.599 108.029 230.492 Q108.029 223.362 106.2 219.821 Q104.395 216.256 100.76 216.256 M100.76 212.552 Q106.571 212.552 109.626 217.159 Q112.705 221.742 112.705 230.492 Q112.705 239.219 109.626 243.825 Q106.571 248.409 100.76 248.409 Q94.9502 248.409 91.8715 243.825 Q88.816 239.219 88.816 230.492 Q88.816 221.742 91.8715 217.159 Q94.9502 212.552 100.76 212.552 Z" fill="#000000" fill-rule="nonzero" fill-opacity="1" /><path clip-path="url(#clip350)" d="M120.922 241.858 L125.807 241.858 L125.807 247.737 L120.922 247.737 L120.922 241.858 Z" fill="#000000" fill-rule="nonzero" fill-opacity="1" /><path clip-path="url(#clip350)" d="M136.802 243.802 L144.441 243.802 L144.441 217.437 L136.131 219.103 L136.131 214.844 L144.394 213.177 L149.07 213.177 L149.07 243.802 L156.709 243.802 L156.709 247.737 L136.802 247.737 L136.802 243.802 Z" fill="#000000" fill-rule="nonzero" fill-opacity="1" /><path clip-path="url(#clip350)" d="M176.153 216.256 Q172.542 216.256 170.714 219.821 Q168.908 223.362 168.908 230.492 Q168.908 237.599 170.714 241.163 Q172.542 244.705 176.153 244.705 Q179.788 244.705 181.593 241.163 Q183.422 237.599 183.422 230.492 Q183.422 223.362 181.593 219.821 Q179.788 216.256 176.153 216.256 M176.153 212.552 Q181.964 212.552 185.019 217.159 Q188.098 221.742 188.098 230.492 Q188.098 239.219 185.019 243.825 Q181.964 248.409 176.153 248.409 Q170.343 248.409 167.265 243.825 Q164.209 239.219 164.209 230.492 Q164.209 221.742 167.265 217.159 Q170.343 212.552 176.153 212.552 Z" fill="#000000" fill-rule="nonzero" fill-opacity="1" /><polyline clip-path="url(#clip352)" style="stroke:#009af9; stroke-linecap:round; stroke-linejoin:round; stroke-width:4; stroke-opacity:1; fill:none" points="284.343,767.668 288.304,1215.23 292.265,1214.91 296.226,1226.56 300.186,1244.59 304.147,1265.3 308.108,1285.84 312.069,1303.02 316.03,1316.56 319.991,1324.78 323.952,1327.73 327.913,1324.43 331.874,1313.77 335.834,1295.14 339.795,1267.35 343.756,1230.62 347.717,1185.56 351.678,1134.05 355.639,1078.86 359.6,1020.41 363.561,961.762 367.521,903.391 371.482,846.311 375.443,791.246 379.404,739.501 383.365,691.503 387.326,647.62 391.287,610.533 395.248,580.121 399.209,556.314 403.169,541.037 407.13,533.55 411.091,534.161 415.052,541.798 419.013,558.084 422.974,581.073 426.935,610.344 430.896,645.547 434.856,684.651 438.817,726.735 442.778,769.67 446.739,811.643 450.7,851.042 454.661,885.636 458.622,913.707 462.583,934.547 466.544,945.761 470.504,947.337 474.465,938.75 478.426,920.763 482.387,894.332 486.348,861.44 490.309,824.724 494.27,786.464 498.231,748.214 502.192,710.893 506.152,675.092 510.113,640.734 514.074,607.2 518.035,574.053 521.996,542.692 525.957,512.56 529.918,486.597 533.879,465.482 537.839,450.515 541.8,442.278 545.761,442.19 549.722,448.463 553.683,459.883 557.644,477.439 561.605,497.325 565.566,519.213 569.527,541.7 573.487,561.818 577.448,578.96 581.409,591.171 585.37,596.366 589.331,592.877 593.292,580.332 597.253,558.953 601.214,530.968 605.174,500.342 609.135,473.078 613.096,454.013 617.057,446.727 621.018,454.014 624.979,475.747 628.94,511.091 632.901,558.668 636.862,616.183 640.822,682.867 644.783,754.083 648.744,829.242 652.705,905.628 656.666,980.758 660.627,1052.72 664.588,1121.65 668.549,1184.94 672.509,1242.8 676.47,1294.43 680.431,1340.41 684.392,1379.05 688.353,1409.27 692.314,1429.45 696.275,1437.61 700.236,1433.82 704.197,1418.88 708.157,1393.29 712.118,1358.34 716.079,1316.63 720.04,1271.02 724.001,1224.39 727.962,1179.67 731.923,1138.99 735.884,1104.14 739.845,1074.57 743.805,1049.14 747.766,1027.32 751.727,1006.53 755.688,985.977 759.649,965.87 763.61,946.603 767.571,929.456 771.532,915.526 775.492,906.634 779.453,904.743 783.414,913.98 787.375,756.295 791.336,537.776 795.297,526.382 799.258,525.232 803.219,530.741 807.18,541.236 811.14,555.29 815.101,572.647 819.062,592.776 823.023,615.676 826.984,639.514 830.945,665.315 834.906,692.114 838.867,719.233 842.827,747.061 846.788,773.287 850.749,797.29 854.71,816.767 858.671,831.374 862.632,839.592 866.593,839.006 870.554,831.09 874.515,814.641 878.475,789.461 882.436,757.794 886.397,719.15 890.358,675.924 894.319,629.434 898.28,580.47 902.241,531.829 906.202,484.635 910.163,441.774 914.123,405.127 918.084,377.73 922.045,361.586 926.006,359.198 929.967,371.543 933.928,400.143 937.889,444.244 941.85,502.249 945.81,570.937 949.771,647.231 953.732,726.827 957.693,804.496 961.654,876.965 965.615,942.554 969.576,1000.51 973.537,1054.99 977.498,1109.09 981.458,1163.1 985.419,1213.55 989.38,1257.64 993.341,1289.62 997.302,1306.99 1001.26,1308.46 1005.22,1293.44 1009.18,1261.95 1013.15,1215.2 1017.11,1154.55 1021.07,1080.5 1025.03,994.704 1028.99,900.662 1032.95,801.116 1036.91,700.174 1040.87,603.184 1044.83,517.885 1048.79,453.418 1052.75,418.394 1056.72,419.434 1060.68,449.81 1064.64,484.374 1068.6,489.323 1072.56,454.105 1076.52,394.592 1080.48,331.831 1084.44,281.83 1088.4,250.833 1092.36,240.723 1096.32,251.673 1100.28,280.883 1104.25,326.2 1108.21,384.759 1112.17,453.118 1116.13,527.82 1120.09,606.028 1124.05,685.519 1128.01,763.398 1131.97,837.889 1135.93,907.908 1139.89,972.105 1143.85,1029.36 1147.82,1079.76 1151.78,1122.2 1155.74,1156.16 1159.7,1182.66 1163.66,1200.16 1167.62,1212.57 1171.58,1217.97 1175.54,1217.84 1179.5,1209.91 1183.46,1192.88 1187.42,1164.74 1191.39,1121.62 1195.35,1064.2 1199.31,993.012 1203.27,909.746 1207.23,818.65 1211.19,723.489 1215.15,627.658 1219.11,535.375 1223.07,448.01 1227.03,368.725 1230.99,296.633 1234.95,234.229 1238.92,181.619 1242.88,139.857 1246.84,109.718 1250.8,92.3987 1254.76,87.9763 1258.72,95.6208 1262.68,114.865 1266.64,144.617 1270.6,181.131 1274.56,224.464 1278.52,268.736 1282.49,310.249 1286.45,341.509 1290.41,767.268 1294.37,1175.74 1298.33,1159.64 1302.29,1143.04 1306.25,1127.46 1310.21,1112.23 1314.17,1098.9 1318.13,1086.56 1322.09,1074.67 1326.06,1062.58 1330.02,1051.72 1333.98,1041.74 1337.94,1033.43 1341.9,1028.08 1345.86,1025.71 1349.82,1025.06 1353.78,1026.95 1357.74,1029.91 1361.7,1033.85 1365.66,1035.94 1369.63,1035.83 1373.59,1032.46 1377.55,1024.26 1381.51,1010.05 1385.47,989.995 1389.43,963.239 1393.39,930.008 1397.35,891.891 1401.31,848.925 1405.27,802.373 1409.23,754.716 1413.19,708.069 1417.16,664.295 1421.12,625.787 1425.08,594.487 1429.04,570.112 1433,552.727 1436.96,541.813 1440.92,535.566 1444.88,532.975 1448.84,534.994 1452.8,540.815 1456.76,551.112 1460.73,564.984 1464.69,583.438 1468.65,605.222 1472.61,629.664 1476.57,656.568 1480.53,685.12 1484.49,715.07 1488.45,744.782 1492.41,774.846 1496.37,804.291 1500.33,832.124 1504.3,857.559 1508.26,880.151 1512.22,900.254 1516.18,916.081 1520.14,927.571 1524.1,935.405 1528.06,938.915 1532.02,938.608 1535.98,934.748 1539.94,927.661 1543.9,917.664 1547.86,906.044 1551.83,893.795 1555.79,880.548 1559.75,867.635 1563.71,856.871 1567.67,848.175 1571.63,842.176 1575.59,838.762 1579.55,838.387 1583.51,838.365 1587.47,838.948 1591.43,840.371 1595.4,839.973 1599.36,840.168 1603.32,839.606 1607.28,839.112 1611.24,837.465 1615.2,833.997 1619.16,827.821 1623.12,818.968 1627.08,807.019 1631.04,791.756 1635,772.161 1638.97,748.58 1642.93,721.683 1646.89,692.093 1650.85,659.442 1654.81,623.335 1658.77,584.802 1662.73,543.299 1666.69,500.675 1670.65,458.374 1674.61,417.625 1678.57,380.475 1682.53,347.7 1686.5,321.523 1690.46,301.725 1694.42,288.081 1698.38,279.875 1702.34,276.417 1706.3,275.984 1710.26,278.317 1714.22,282.178 1718.18,287.228 1722.14,292.077 1726.1,296.315 1730.07,298.887 1734.03,298.681 1737.99,296.341 1741.95,292.781 1745.91,287.459 1749.87,284.539 1753.83,283.141 1757.79,284.853 1761.75,289.248 1765.71,297.441 1769.67,307.494 1773.64,321.035 1777.6,337.605 1781.56,358.547 1785.52,383.828 1789.48,418.302 1793.44,758.856 1797.4,998.686 1801.36,968.033 1805.32,950.269 1809.28,943.441 1813.24,946.823 1817.2,958.49 1821.17,978.153 1825.13,1003.99 1829.09,1033.82 1833.05,1066.63 1837.01,1101.5 1840.97,1136.83 1844.93,1172.05 1848.89,1206.78 1852.85,1240.39 1856.81,1272.6 1860.77,1303.56 1864.74,1332.43 1868.7,1357.54 1872.66,1378.15 1876.62,1394.39 1880.58,1405.41 1884.54,1410.55 1888.5,1414.46 1892.46,1418.8 1896.42,1425.16 1900.38,1432.67 1904.34,1440.61 1908.31,1445.72 1912.27,1445.57 1916.23,1439.31 1920.19,1426.3 1924.15,1405.67 1928.11,1378.03 1932.07,1343.82 1936.03,1304.01 1939.99,1259.96 1943.95,1212.52 1947.91,1161.55 1951.87,1108.87 1955.84,1055.08 1959.8,1000.46 1963.76,944.999 1967.72,889.336 1971.68,833.651 1975.64,779.118 1979.6,725.984 1983.56,673.922 1987.52,623.345 1991.48,574.834 1995.44,528.582 1999.41,485.253 2003.37,445.354 2007.33,409.641 2011.29,377.573 2015.25,350.073 2019.21,325.81 2023.17,304.108 2027.13,284.436 2031.09,267.538 2035.05,253.807 2039.01,245.021 2042.98,245.572 2046.94,256.501 2050.9,280.336 2054.86,318.783 2058.82,371.052 2062.78,436.357 2066.74,513.174 2070.7,596.486 2074.66,683.544 2078.62,770.571 2082.58,852.861 2086.54,927.51 2090.51,994.191 2094.47,1050.1 2098.43,1095.19 2102.39,1129.63 2106.35,1154.62 2110.31,1167.41 2114.27,1170.62 2118.23,1161.74 2122.19,1141.72 2126.15,1111.21 2130.11,1070.85 2134.08,1022.17 2138.04,968.318 2142,912.073 2145.96,857.923 2149.92,810.304 2153.88,770.148 2157.84,738.219 2161.8,712.184 2165.76,688.961 2169.72,666.287 2173.68,643.464 2177.65,621.803 2181.61,602.39 2185.57,586.453 2189.53,575.354 2193.49,568.984 2197.45,566.197 2201.41,566.38 2205.37,569.127 2209.33,571.005 2213.29,570.183 2217.25,566.149 2221.21,556.628 2225.18,541.608 2229.14,521.339 2233.1,497.744 2237.06,471.137 2241.02,443.052 2244.98,416.078 2248.94,389.322 2252.9,364.66 2256.86,343.272 2260.82,323.323 2264.78,306.381 2268.75,292.354 2272.71,280.232 2276.67,270.697 2280.63,264.841 2284.59,263.295 2288.55,266.476 2292.51,276.59 "/>
<path clip-path="url(#clip350)" d="M295.053 198.898 L560.349 198.898 L560.349 95.2176 L295.053 95.2176  Z" fill="#ffffff" fill-rule="evenodd" fill-opacity="1"/>
<polyline clip-path="url(#clip350)" style="stroke:#000000; stroke-linecap:round; stroke-linejoin:round; stroke-width:4; stroke-opacity:1; fill:none" points="295.053,198.898 560.349,198.898 560.349,95.2176 295.053,95.2176 295.053,198.898 "/>
<polyline clip-path="url(#clip350)" style="stroke:#009af9; stroke-linecap:round; stroke-linejoin:round; stroke-width:4; stroke-opacity:1; fill:none" points="318.705,147.058 460.615,147.058 "/>
<path clip-path="url(#clip350)" d="M498.11 166.745 Q496.304 171.375 494.591 172.787 Q492.878 174.199 490.008 174.199 L486.605 174.199 L486.605 170.634 L489.105 170.634 Q490.864 170.634 491.837 169.8 Q492.809 168.967 493.989 165.865 L494.753 163.921 L484.267 138.412 L488.781 138.412 L496.883 158.689 L504.985 138.412 L509.499 138.412 L498.11 166.745 Z" fill="#000000" fill-rule="nonzero" fill-opacity="1" /><path clip-path="url(#clip350)" d="M516.79 160.402 L524.429 160.402 L524.429 134.037 L516.119 135.703 L516.119 131.444 L524.383 129.778 L529.059 129.778 L529.059 160.402 L536.697 160.402 L536.697 164.338 L516.79 164.338 L516.79 160.402 Z" fill="#000000" fill-rule="nonzero" fill-opacity="1" /></svg>
